Pilsner-Light.ufo
<glyph name="exclam" format="1">
  <advance width="200"/>
  <unicode hex="0021"/>
  <outline>
    <contour>
      <point x="133" y="595" type="line"/>
      <point x="124" y="253" type="line"/>
      <point x="115" y="140" type="line"/>
      <point x="85" y="140" type="line"/>
      <point x="76" y="253" type="line"/>
      <point x="67" y="595" type="line"/>
    </contour>
    <contour>
      <point x="140" y="41" type="line"/>
      <point x="138" y="0" type="line"/>
      <point x="62" y="0" type="line"/>
      <point x="60" y="41" type="line"/>
      <point x="62" y="82" type="line"/>
      <point x="138" y="82" type="line"/>
    </contour>
  </outline>
</glyph>
<glyph name="quotedbl" format="1">
  <advance width="354"/>
  <unicode hex="0022"/>
  <outline>
    <contour>
      <point x="288" y="511" type="line"/>
      <point x="272" y="380" type="line"/>
      <point x="240" y="380" type="line"/>
      <point x="224" y="511" type="line"/>
      <point x="228" y="595" type="line"/>
      <point x="284" y="595" type="line"/>
    </contour>
    <contour>
      <point x="130" y="511" type="line"/>
      <point x="114" y="380" type="line"/>
      <point x="82" y="380" type="line"/>
      <point x="66" y="511" type="line"/>
      <point x="70" y="595" type="line"/>
      <point x="126" y="595" type="line"/>
    </contour>
  </outline>
</glyph>
<glyph name="numbersign" format="1">
  <advance width="581"/>
  <unicode hex="0023"/>
  <outline>
    <contour>
      <point x="562" y="382" type="line"/>
      <point x="452" y="379" type="line"/>
      <point x="422" y="282" type="line"/>
      <point x="398" y="218" type="line"/>
      <point x="522" y="215" type="line"/>
      <point x="522" y="175" type="line"/>
      <point x="381" y="171" type="line"/>
      <point x="313" y="-10" type="line"/>
      <point x="276" y="1" type="line"/>
      <point x="329" y="170" type="line"/>
      <point x="241" y="168" type="line"/>
      <point x="165" y="170" type="line"/>
      <point x="98" y="-10" type="line"/>
      <point x="61" y="1" type="line"/>
      <point x="114" y="172" type="line"/>
      <point x="19" y="175" type="line"/>
      <point x="19" y="215" type="line"/>
      <point x="129" y="218" type="line"/>
      <point x="160" y="318" type="line"/>
      <point x="183" y="379" type="line"/>
      <point x="59" y="382" type="line"/>
      <point x="59" y="422" type="line"/>
      <point x="200" y="426" type="line"/>
      <point x="268" y="607" type="line"/>
      <point x="305" y="596" type="line"/>
      <point x="252" y="427" type="line"/>
      <point x="341" y="429" type="line"/>
      <point x="415" y="426" type="line"/>
      <point x="483" y="607" type="line"/>
      <point x="520" y="596" type="line"/>
      <point x="467" y="425" type="line"/>
      <point x="562" y="422" type="line"/>
    </contour>
    <contour>
      <point x="397" y="377" type="line"/>
      <point x="311" y="375" type="line"/>
      <point x="237" y="377" type="line"/>
      <point x="207" y="282" type="line"/>
      <point x="184" y="220" type="line"/>
      <point x="271" y="222" type="line"/>
      <point x="344" y="220" type="line"/>
      <point x="375" y="318" type="line"/>
    </contour>
  </outline>
</glyph>
<glyph name="dollar" format="1">
  <advance width="433"/>
  <unicode hex="0024"/>
  <outline>
    <contour>
      <point x="373" y="113" type="line"/>
      <point x="243" y="60" type="line"/>
      <point x="248" y="-10" type="line"/>
      <point x="184" y="-10" type="line"/>
      <point x="189" y="60" type="line"/>
      <point x="48" y="108" type="line"/>
      <point x="68" y="159" type="line"/>
      <point x="218" y="104" type="line"/>
      <point x="317" y="141" type="line"/>
      <point x="317" y="233" type="line"/>
      <point x="65" y="333" type="line"/>
      <point x="65" y="482" type="line"/>
      <point x="189" y="534" type="line"/>
      <point x="184" y="605" type="line"/>
      <point x="248" y="605" type="line"/>
      <point x="243" y="534" type="line"/>
      <point x="369" y="503" type="line"/>
      <point x="352" y="450" type="line"/>
      <point x="215" y="491" type="line"/>
      <point x="120" y="454" type="line"/>
      <point x="120" y="368" type="line"/>
      <point x="373" y="268" type="line"/>
    </contour>
  </outline>
</glyph>
<glyph name="percent" format="1">
  <advance width="895"/>
  <unicode hex="0025"/>
  <outline>
    <contour>
      <point x="364" y="419" type="line"/>
      <point x="343" y="268" type="line"/>
      <point x="230" y="237" type="line"/>
      <point x="168" y="237" type="line"/>
      <point x="55" y="267" type="line"/>
      <point x="34" y="418" type="line"/>
      <point x="55" y="569" type="line"/>
      <point x="168" y="600" type="line"/>
      <point x="230" y="600" type="line"/>
      <point x="343" y="570" type="line"/>
    </contour>
    <contour>
      <point x="607" y="588" type="line"/>
      <point x="435" y="206" type="line"/>
      <point x="324" y="-7" type="line"/>
      <point x="288" y="7" type="line"/>
      <point x="460" y="389" type="line"/>
      <point x="571" y="602" type="line"/>
    </contour>
    <contour>
      <point x="861" y="177" type="line"/>
      <point x="840" y="26" type="line"/>
      <point x="727" y="-5" type="line"/>
      <point x="665" y="-5" type="line"/>
      <point x="552" y="25" type="line"/>
      <point x="531" y="176" type="line"/>
      <point x="552" y="327" type="line"/>
      <point x="665" y="358" type="line"/>
      <point x="727" y="358" type="line"/>
      <point x="840" y="328" type="line"/>
    </contour>
    <contour>
      <point x="311" y="418" type="line"/>
      <point x="295" y="535" type="line"/>
      <point x="199" y="559" type="line"/>
      <point x="103" y="535" type="line"/>
      <point x="87" y="419" type="line"/>
      <point x="103" y="302" type="line"/>
      <point x="199" y="278" type="line"/>
      <point x="295" y="302" type="line"/>
    </contour>
    <contour>
      <point x="808" y="176" type="line"/>
      <point x="792" y="293" type="line"/>
      <point x="696" y="317" type="line"/>
      <point x="600" y="293" type="line"/>
      <point x="584" y="177" type="line"/>
      <point x="600" y="60" type="line"/>
      <point x="696" y="36" type="line"/>
      <point x="792" y="60" type="line"/>
    </contour>
  </outline>
</glyph>
<glyph name="ampersand" format="1">
  <advance width="507"/>
  <unicode hex="0026"/>
  <outline>
    <contour>
      <point x="487" y="22" type="line"/>
      <point x="445" y="-10" type="line"/>
      <point x="359" y="97" type="line"/>
      <point x="231" y="-2" type="line"/>
      <point x="172" y="-2" type="line"/>
      <point x="50" y="43" type="line"/>
      <point x="23" y="150" type="line"/>
      <point x="50" y="258" type="line"/>
      <point x="182" y="316" type="line"/>
      <point x="114" y="401" type="line"/>
      <point x="114" y="513" type="line"/>
      <point x="166" y="595" type="line"/>
      <point x="378" y="595" type="line"/>
      <point x="368" y="544" type="line"/>
      <point x="201" y="557" type="line"/>
      <point x="171" y="502" type="line"/>
      <point x="171" y="417" type="line"/>
      <point x="356" y="186" type="line"/>
      <point x="419" y="375" type="line"/>
      <point x="480" y="375" type="line"/>
      <point x="390" y="144" type="line"/>
    </contour>
    <contour>
      <point x="329" y="135" type="line"/>
      <point x="212" y="280" type="line"/>
      <point x="100" y="228" type="line"/>
      <point x="81" y="150" type="line"/>
      <point x="100" y="73" type="line"/>
      <point x="202" y="36" type="line"/>
    </contour>
  </outline>
</glyph>
<glyph name="quotesingle" format="1">
  <advance width="196"/>
  <unicode hex="0027"/>
  <outline>
    <contour>
      <point x="130" y="511" type="line"/>
      <point x="114" y="380" type="line"/>
      <point x="82" y="380" type="line"/>
      <point x="66" y="511" type="line"/>
      <point x="70" y="595" type="line"/>
      <point x="126" y="595" type="line"/>
    </contour>
  </outline>
</glyph>
<glyph name="parenleft" format="1">
  <advance width="373"/>
  <unicode hex="0028"/>
  <outline>
    <contour>
      <point x="325" y="-121" type="line"/>
      <point x="303" y="-152" type="line"/>
      <point x="106" y="-41" type="line"/>
      <point x="57" y="227" type="line"/>
      <point x="106" y="496" type="line"/>
      <point x="303" y="607" type="line"/>
      <point x="325" y="576" type="line"/>
      <point x="156" y="467" type="line"/>
      <point x="116" y="227" type="line"/>
      <point x="156" y="-12" type="line"/>
    </contour>
  </outline>
</glyph>
<glyph name="parenright" format="1">
  <advance width="373"/>
  <unicode hex="0029"/>
  <outline>
    <contour>
      <point x="316" y="227" type="line"/>
      <point x="267" y="-41" type="line"/>
      <point x="70" y="-152" type="line"/>
      <point x="48" y="-121" type="line"/>
      <point x="217" y="-12" type="line"/>
      <point x="257" y="227" type="line"/>
      <point x="217" y="467" type="line"/>
      <point x="48" y="576" type="line"/>
      <point x="70" y="607" type="line"/>
      <point x="267" y="496" type="line"/>
    </contour>
  </outline>
</glyph>
<glyph name="asterisk" format="1">
  <advance width="408"/>
  <unicode hex="002A"/>
  <outline>
    <contour>
      <point x="369" y="461" type="line"/>
      <point x="223" y="432" type="line"/>
      <point x="325" y="324" type="line"/>
      <point x="276" y="289" type="line"/>
      <point x="204" y="417" type="line"/>
      <point x="132" y="289" type="line"/>
      <point x="83" y="324" type="line"/>
      <point x="185" y="432" type="line"/>
      <point x="39" y="461" type="line"/>
      <point x="57" y="518" type="line"/>
      <point x="191" y="455" type="line"/>
      <point x="174" y="603" type="line"/>
      <point x="234" y="603" type="line"/>
      <point x="217" y="455" type="line"/>
      <point x="351" y="518" type="line"/>
    </contour>
  </outline>
</glyph>
<glyph name="plus" format="1">
  <advance width="426"/>
  <unicode hex="002B"/>
  <outline>
    <contour>
      <point x="375" y="206" type="line"/>
      <point x="240" y="200" type="line"/>
      <point x="234" y="55" type="line"/>
      <point x="192" y="55" type="line"/>
      <point x="186" y="200" type="line"/>
      <point x="41" y="206" type="line"/>
      <point x="41" y="248" type="line"/>
      <point x="186" y="254" type="line"/>
      <point x="192" y="399" type="line"/>
      <point x="234" y="399" type="line"/>
      <point x="240" y="254" type="line"/>
      <point x="375" y="248" type="line"/>
    </contour>
  </outline>
</glyph>
<glyph name="comma" format="1">
  <advance width="170"/>
  <unicode hex="002C"/>
  <outline>
    <contour>
      <point x="124" y="24" type="line"/>
      <point x="71" y="-65" type="line"/>
      <point x="45" y="-54" type="line"/>
      <point x="58" y="10" type="line"/>
      <point x="51" y="78" type="line"/>
      <point x="122" y="78" type="line"/>
    </contour>
  </outline>
</glyph>
<glyph name="hyphen" format="1">
  <advance width="318"/>
  <unicode hex="002D"/>
  <unicode hex="2010"/>
  <unicode hex="2011"/>
  <outline>
    <contour>
      <point x="281" y="206" type="line"/>
      <point x="159" y="201" type="line"/>
      <point x="37" y="206" type="line"/>
      <point x="37" y="248" type="line"/>
      <point x="159" y="253" type="line"/>
      <point x="281" y="248" type="line"/>
    </contour>
  </outline>
</glyph>
<glyph name="slash" format="1">
  <advance width="363"/>
  <unicode hex="002F"/>
  <outline>
    <contour>
      <point x="326" y="588" type="line"/>
      <point x="160" y="136" type="line"/>
      <point x="40" y="-147" type="line"/>
      <point x="1" y="-133" type="line"/>
      <point x="167" y="319" type="line"/>
      <point x="287" y="602" type="line"/>
    </contour>
  </outline>
</glyph>
<glyph name="zero" format="1">
  <advance width="556"/>
  <unicode hex="0030"/>
  <outline>
    <contour>
      <point x="511" y="297" type="line"/>
      <point x="479" y="46" type="line"/>
      <point x="317" y="-5" type="line"/>
      <point x="239" y="-5" type="line"/>
      <point x="76" y="46" type="line"/>
      <point x="45" y="297" type="line"/>
      <point x="76" y="549" type="line"/>
      <point x="239" y="600" type="line"/>
      <point x="317" y="600" type="line"/>
      <point x="479" y="549" type="line"/>
    </contour>
    <contour>
      <point x="452" y="297" type="line"/>
      <point x="426" y="519" type="line"/>
      <point x="278" y="563" type="line"/>
      <point x="130" y="519" type="line"/>
      <point x="103" y="297" type="line"/>
      <point x="130" y="76" type="line"/>
      <point x="277" y="32" type="line"/>
      <point x="426" y="76" type="line"/>
    </contour>
  </outline>
</glyph>
<glyph name="one" format="1">
  <advance width="265"/>
  <unicode hex="0031"/>
  <outline>
    <contour>
      <point x="198" y="0" type="line"/>
      <point x="132" y="0" type="line"/>
      <point x="140" y="296" type="line"/>
      <point x="134" y="540" type="line"/>
      <point x="25" y="515" type="line"/>
      <point x="14" y="553" type="line"/>
      <point x="155" y="597" type="line"/>
      <point x="198" y="597" type="line"/>
      <point x="190" y="296" type="line"/>
    </contour>
  </outline>
</glyph>
<glyph name="two" format="1">
  <advance width="448"/>
  <unicode hex="0032"/>
  <outline>
    <contour>
      <point x="397" y="0" type="line"/>
      <point x="46" y="0" type="line"/>
      <point x="36" y="23" type="line"/>
      <point x="324" y="356" type="line"/>
      <point x="338" y="435" type="line"/>
      <point x="324" y="514" type="line"/>
      <point x="215" y="560" type="line"/>
      <point x="64" y="499" type="line"/>
      <point x="42" y="548" type="line"/>
      <point x="181" y="600" type="line"/>
      <point x="250" y="600" type="line"/>
      <point x="375" y="549" type="line"/>
      <point x="396" y="444" type="line"/>
      <point x="375" y="339" type="line"/>
      <point x="113" y="38" type="line"/>
      <point x="387" y="52" type="line"/>
    </contour>
  </outline>
</glyph>
<glyph name="three" format="1">
  <advance width="474"/>
  <unicode hex="0033"/>
  <outline>
    <contour>
      <point x="426" y="192" type="line"/>
      <point x="396" y="58" type="line"/>
      <point x="243" y="-5" type="line"/>
      <point x="164" y="-5" type="line"/>
      <point x="25" y="38" type="line"/>
      <point x="42" y="89" type="line"/>
      <point x="205" y="34" type="line"/>
      <point x="350" y="93" type="line"/>
      <point x="368" y="187" type="line"/>
      <point x="350" y="282" type="line"/>
      <point x="204" y="305" type="line"/>
      <point x="159" y="289" type="line"/>
      <point x="136" y="311" type="line"/>
      <point x="351" y="554" type="line"/>
      <point x="56" y="539" type="line"/>
      <point x="44" y="595" type="line"/>
      <point x="414" y="595" type="line"/>
      <point x="423" y="562" type="line"/>
      <point x="234" y="350" type="line"/>
      <point x="396" y="326" type="line"/>
    </contour>
  </outline>
</glyph>
<glyph name="four" format="1">
  <advance width="498"/>
  <unicode hex="0034"/>
  <outline>
    <contour>
      <point x="484" y="145" type="line"/>
      <point x="384" y="145" type="line"/>
      <point x="390" y="0" type="line"/>
      <point x="326" y="0" type="line"/>
      <point x="332" y="145" type="line"/>
      <point x="26" y="145" type="line"/>
      <point x="17" y="173" type="line"/>
      <point x="207" y="460" type="line"/>
      <point x="286" y="611" type="line"/>
      <point x="348" y="575" type="line"/>
      <point x="82" y="189" type="line"/>
      <point x="332" y="195" type="line"/>
      <point x="326" y="375" type="line"/>
      <point x="390" y="375" type="line"/>
      <point x="384" y="196" type="line"/>
      <point x="474" y="199" type="line"/>
    </contour>
  </outline>
</glyph>
<glyph name="five" format="1">
  <advance width="464"/>
  <unicode hex="0035"/>
  <outline>
    <contour>
      <point x="426" y="197" type="line"/>
      <point x="396" y="58" type="line"/>
      <point x="248" y="-5" type="line"/>
      <point x="169" y="-5" type="line"/>
      <point x="25" y="38" type="line"/>
      <point x="44" y="92" type="line"/>
      <point x="210" y="34" type="line"/>
      <point x="348" y="89" type="line"/>
      <point x="368" y="193" type="line"/>
      <point x="348" y="295" type="line"/>
      <point x="236" y="334" type="line"/>
      <point x="87" y="270" type="line"/>
      <point x="62" y="284" type="line"/>
      <point x="77" y="595" type="line"/>
      <point x="408" y="595" type="line"/>
      <point x="398" y="544" type="line"/>
      <point x="128" y="554" type="line"/>
      <point x="114" y="329" type="line"/>
      <point x="219" y="379" type="line"/>
      <point x="267" y="379" type="line"/>
      <point x="396" y="336" type="line"/>
    </contour>
  </outline>
</glyph>
<glyph name="six" format="1">
  <advance width="506"/>
  <unicode hex="0036"/>
  <outline>
    <contour>
      <point x="462" y="192" type="line"/>
      <point x="440" y="46" type="line"/>
      <point x="293" y="-5" type="line"/>
      <point x="213" y="-5" type="line"/>
      <point x="75" y="46" type="line"/>
      <point x="45" y="298" type="line"/>
      <point x="75" y="537" type="line"/>
      <point x="228" y="600" type="line"/>
      <point x="308" y="600" type="line"/>
      <point x="443" y="561" type="line"/>
      <point x="425" y="509" type="line"/>
      <point x="265" y="559" type="line"/>
      <point x="125" y="501" type="line"/>
      <point x="103" y="320" type="line"/>
      <point x="230" y="380" type="line"/>
      <point x="300" y="380" type="line"/>
      <point x="440" y="336" type="line"/>
    </contour>
    <contour>
      <point x="406" y="192" type="line"/>
      <point x="387" y="298" type="line"/>
      <point x="260" y="342" type="line"/>
      <point x="103" y="270" type="line"/>
      <point x="125" y="79" type="line"/>
      <point x="253" y="33" type="line"/>
      <point x="387" y="79" type="line"/>
    </contour>
  </outline>
</glyph>
<glyph name="seven" format="1">
  <advance width="430"/>
  <unicode hex="0037"/>
  <outline>
    <contour>
      <point x="403" y="561" type="line"/>
      <point x="142" y="-11" type="line"/>
      <point x="80" y="17" type="line"/>
      <point x="184" y="197" type="line"/>
      <point x="341" y="551" type="line"/>
      <point x="41" y="536" type="line"/>
      <point x="26" y="595" type="line"/>
      <point x="391" y="595" type="line"/>
    </contour>
  </outline>
</glyph>
<glyph name="eight" format="1">
  <advance width="498"/>
  <unicode hex="0038"/>
  <outline>
    <contour>
      <point x="454" y="150" type="line"/>
      <point x="437" y="41" type="line"/>
      <point x="290" y="-5" type="line"/>
      <point x="208" y="-5" type="line"/>
      <point x="61" y="41" type="line"/>
      <point x="44" y="150" type="line"/>
      <point x="71" y="259" type="line"/>
      <point x="192" y="297" type="line"/>
      <point x="86" y="336" type="line"/>
      <point x="59" y="444" type="line"/>
      <point x="76" y="554" type="line"/>
      <point x="213" y="600" type="line"/>
      <point x="285" y="600" type="line"/>
      <point x="422" y="554" type="line"/>
      <point x="439" y="444" type="line"/>
      <point x="412" y="336" type="line"/>
      <point x="306" y="297" type="line"/>
      <point x="427" y="259" type="line"/>
    </contour>
    <contour>
      <point x="378" y="447" type="line"/>
      <point x="366" y="526" type="line"/>
      <point x="249" y="562" type="line"/>
      <point x="132" y="526" type="line"/>
      <point x="120" y="447" type="line"/>
      <point x="136" y="367" type="line"/>
      <point x="249" y="324" type="line"/>
      <point x="362" y="367" type="line"/>
    </contour>
    <contour>
      <point x="394" y="148" type="line"/>
      <point x="377" y="228" type="line"/>
      <point x="249" y="271" type="line"/>
      <point x="121" y="228" type="line"/>
      <point x="104" y="148" type="line"/>
      <point x="117" y="69" type="line"/>
      <point x="249" y="30" type="line"/>
      <point x="381" y="69" type="line"/>
    </contour>
  </outline>
</glyph>
<glyph name="nine" format="1">
  <advance width="506"/>
  <unicode hex="0039"/>
  <outline>
    <contour>
      <point x="461" y="297" type="line"/>
      <point x="431" y="58" type="line"/>
      <point x="278" y="-5" type="line"/>
      <point x="198" y="-5" type="line"/>
      <point x="48" y="34" type="line"/>
      <point x="66" y="86" type="line"/>
      <point x="241" y="36" type="line"/>
      <point x="381" y="94" type="line"/>
      <point x="403" y="285" type="line"/>
      <point x="276" y="225" type="line"/>
      <point x="206" y="225" type="line"/>
      <point x="66" y="269" type="line"/>
      <point x="44" y="408" type="line"/>
      <point x="66" y="549" type="line"/>
      <point x="213" y="600" type="line"/>
      <point x="293" y="600" type="line"/>
      <point x="431" y="549" type="line"/>
    </contour>
    <contour>
      <point x="403" y="335" type="line"/>
      <point x="381" y="516" type="line"/>
      <point x="253" y="562" type="line"/>
      <point x="119" y="516" type="line"/>
      <point x="100" y="408" type="line"/>
      <point x="119" y="307" type="line"/>
      <point x="246" y="263" type="line"/>
    </contour>
  </outline>
</glyph>
<glyph name="colon" format="1">
  <advance width="170"/>
  <unicode hex="003A"/>
  <outline>
    <contour>
      <point x="122" y="336" type="line"/>
      <point x="120" y="297" type="line"/>
      <point x="50" y="297" type="line"/>
      <point x="48" y="336" type="line"/>
      <point x="50" y="375" type="line"/>
      <point x="120" y="375" type="line"/>
    </contour>
    <contour>
      <point x="122" y="39" type="line"/>
      <point x="120" y="0" type="line"/>
      <point x="50" y="0" type="line"/>
      <point x="48" y="39" type="line"/>
      <point x="50" y="78" type="line"/>
      <point x="120" y="78" type="line"/>
    </contour>
  </outline>
</glyph>
<glyph name="semicolon" format="1">
  <advance width="170"/>
  <unicode hex="003B"/>
  <outline>
    <contour>
      <point x="122" y="336" type="line"/>
      <point x="120" y="297" type="line"/>
      <point x="50" y="297" type="line"/>
      <point x="48" y="336" type="line"/>
      <point x="50" y="375" type="line"/>
      <point x="120" y="375" type="line"/>
    </contour>
    <contour>
      <point x="122" y="24" type="line"/>
      <point x="69" y="-65" type="line"/>
      <point x="43" y="-54" type="line"/>
      <point x="56" y="10" type="line"/>
      <point x="49" y="78" type="line"/>
      <point x="120" y="78" type="line"/>
    </contour>
  </outline>
</glyph>
<glyph name="less" format="1">
  <advance width="343"/>
  <unicode hex="003C"/>
  <outline>
    <contour>
      <point x="297" y="43" type="line"/>
      <point x="268" y="15" type="line"/>
      <point x="116" y="157" type="line"/>
      <point x="41" y="208" type="line"/>
      <point x="41" y="246" type="line"/>
      <point x="116" y="297" type="line"/>
      <point x="268" y="439" type="line"/>
      <point x="297" y="411" type="line"/>
      <point x="119" y="226" type="line"/>
    </contour>
  </outline>
</glyph>
<glyph name="equal" format="1">
  <advance width="446"/>
  <unicode hex="003D"/>
  <outline>
    <contour>
      <point x="395" y="270" type="line"/>
      <point x="223" y="263" type="line"/>
      <point x="51" y="270" type="line"/>
      <point x="51" y="314" type="line"/>
      <point x="223" y="321" type="line"/>
      <point x="395" y="314" type="line"/>
    </contour>
    <contour>
      <point x="395" y="140" type="line"/>
      <point x="223" y="133" type="line"/>
      <point x="51" y="140" type="line"/>
      <point x="51" y="184" type="line"/>
      <point x="223" y="191" type="line"/>
      <point x="395" y="184" type="line"/>
    </contour>
  </outline>
</glyph>
<glyph name="greater" format="1">
  <advance width="343"/>
  <unicode hex="003E"/>
  <outline>
    <contour>
      <point x="302" y="208" type="line"/>
      <point x="227" y="157" type="line"/>
      <point x="75" y="15" type="line"/>
      <point x="46" y="43" type="line"/>
      <point x="224" y="226" type="line"/>
      <point x="46" y="411" type="line"/>
      <point x="75" y="439" type="line"/>
      <point x="227" y="297" type="line"/>
      <point x="302" y="246" type="line"/>
    </contour>
  </outline>
</glyph>
<glyph name="question" format="1">
  <advance width="418"/>
  <unicode hex="003F"/>
  <outline>
    <contour>
      <point x="386" y="428" type="line"/>
      <point x="361" y="307" type="line"/>
      <point x="210" y="264" type="line"/>
      <point x="196" y="140" type="line"/>
      <point x="166" y="140" type="line"/>
      <point x="155" y="278" type="line"/>
      <point x="181" y="308" type="line"/>
      <point x="311" y="343" type="line"/>
      <point x="328" y="430" type="line"/>
      <point x="311" y="518" type="line"/>
      <point x="187" y="560" type="line"/>
      <point x="51" y="511" type="line"/>
      <point x="29" y="562" type="line"/>
      <point x="148" y="600" type="line"/>
      <point x="222" y="600" type="line"/>
      <point x="361" y="549" type="line"/>
    </contour>
    <contour>
      <point x="222" y="41" type="line"/>
      <point x="220" y="0" type="line"/>
      <point x="144" y="0" type="line"/>
      <point x="142" y="41" type="line"/>
      <point x="144" y="82" type="line"/>
      <point x="220" y="82" type="line"/>
    </contour>
  </outline>
</glyph>
<glyph name="at" format="1">
  <advance width="705"/>
  <unicode hex="0040"/>
  <outline>
    <contour>
      <point x="666" y="356" type="line"/>
      <point x="631" y="163" type="line"/>
      <point x="442" y="112" type="line"/>
      <point x="413" y="122" type="line"/>
      <point x="413" y="167" type="line"/>
      <point x="228" y="107" type="line"/>
      <point x="191" y="128" type="line"/>
      <point x="203" y="300" type="line"/>
      <point x="245" y="471" type="line"/>
      <point x="294" y="492" type="line"/>
      <point x="455" y="467" type="line"/>
      <point x="484" y="487" type="line"/>
      <point x="505" y="487" type="line"/>
      <point x="469" y="299" type="line"/>
      <point x="451" y="149" type="line"/>
      <point x="599" y="188" type="line"/>
      <point x="629" y="356" type="line"/>
      <point x="599" y="525" type="line"/>
      <point x="416" y="568" type="line"/>
      <point x="288" y="568" type="line"/>
      <point x="107" y="525" type="line"/>
      <point x="76" y="297" type="line"/>
      <point x="107" y="71" type="line"/>
      <point x="288" y="27" type="line"/>
      <point x="416" y="27" type="line"/>
      <point x="626" y="80" type="line"/>
      <point x="636" y="47" type="line"/>
      <point x="421" y="-5" type="line"/>
      <point x="284" y="-5" type="line"/>
      <point x="74" y="46" type="line"/>
      <point x="39" y="297" type="line"/>
      <point x="74" y="549" type="line"/>
      <point x="284" y="600" type="line"/>
      <point x="421" y="600" type="line"/>
      <point x="631" y="549" type="line"/>
    </contour>
    <contour>
      <point x="448" y="430" type="line"/>
      <point x="288" y="452" type="line"/>
      <point x="248" y="300" type="line"/>
      <point x="239" y="151" type="line"/>
      <point x="413" y="205" type="line"/>
    </contour>
  </outline>
</glyph>
<glyph name="A" format="1">
  <advance width="571"/>
  <unicode hex="0041"/>
  <outline>
    <contour>
      <point x="530" y="16" type="line"/>
      <point x="472" y="-11" type="line"/>
      <point x="425" y="134" type="line"/>
      <point x="139" y="134" type="line"/>
      <point x="93" y="-11" type="line"/>
      <point x="40" y="13" type="line"/>
      <point x="156" y="321" type="line"/>
      <point x="250" y="597" type="line"/>
      <point x="316" y="597" type="line"/>
      <point x="409" y="328" type="line"/>
    </contour>
    <contour>
      <point x="409" y="182" type="line"/>
      <point x="280" y="539" type="line"/>
      <point x="156" y="182" type="line"/>
    </contour>
  </outline>
</glyph>
<glyph name="B" format="1">
  <advance width="502"/>
  <unicode hex="0042"/>
  <outline>
    <contour>
      <point x="465" y="155" type="line"/>
      <point x="445" y="53" type="line"/>
      <point x="286" y="0" type="line"/>
      <point x="62" y="0" type="line"/>
      <point x="70" y="297" type="line"/>
      <point x="62" y="595" type="line"/>
      <point x="273" y="595" type="line"/>
      <point x="432" y="542" type="line"/>
      <point x="452" y="439" type="line"/>
      <point x="431" y="343" type="line"/>
      <point x="317" y="297" type="line"/>
      <point x="445" y="252" type="line"/>
    </contour>
    <contour>
      <point x="394" y="440" type="line"/>
      <point x="382" y="509" type="line"/>
      <point x="249" y="550" type="line"/>
      <point x="125" y="550" type="line"/>
      <point x="120" y="320" type="line"/>
      <point x="262" y="320" type="line"/>
      <point x="381" y="371" type="line"/>
    </contour>
    <contour>
      <point x="408" y="154" type="line"/>
      <point x="395" y="219" type="line"/>
      <point x="262" y="276" type="line"/>
      <point x="120" y="276" type="line"/>
      <point x="126" y="45" type="line"/>
      <point x="265" y="45" type="line"/>
      <point x="396" y="86" type="line"/>
    </contour>
  </outline>
</glyph>
<glyph name="C" format="1">
  <advance width="508"/>
  <unicode hex="0043"/>
  <outline>
    <contour>
      <point x="470" y="570" type="line"/>
      <point x="454" y="517" type="line"/>
      <point x="284" y="559" type="line"/>
      <point x="130" y="516" type="line"/>
      <point x="103" y="297" type="line"/>
      <point x="130" y="79" type="line"/>
      <point x="283" y="35" type="line"/>
      <point x="451" y="89" type="line"/>
      <point x="466" y="42" type="line"/>
      <point x="317" y="-5" type="line"/>
      <point x="249" y="-5" type="line"/>
      <point x="76" y="46" type="line"/>
      <point x="45" y="297" type="line"/>
      <point x="76" y="549" type="line"/>
      <point x="249" y="600" type="line"/>
      <point x="323" y="600" type="line"/>
    </contour>
  </outline>
</glyph>
<glyph name="D" format="1">
  <advance width="557"/>
  <unicode hex="0044"/>
  <outline>
    <contour>
      <point x="512" y="297" type="line"/>
      <point x="481" y="51" type="line"/>
      <point x="312" y="0" type="line"/>
      <point x="62" y="0" type="line"/>
      <point x="70" y="297" type="line"/>
      <point x="62" y="595" type="line"/>
      <point x="312" y="595" type="line"/>
      <point x="481" y="544" type="line"/>
    </contour>
    <contour>
      <point x="454" y="297" type="line"/>
      <point x="427" y="508" type="line"/>
      <point x="292" y="547" type="line"/>
      <point x="126" y="547" type="line"/>
      <point x="120" y="297" type="line"/>
      <point x="126" y="48" type="line"/>
      <point x="292" y="48" type="line"/>
      <point x="427" y="87" type="line"/>
    </contour>
  </outline>
</glyph>
<glyph name="E" format="1">
  <advance width="424"/>
  <unicode hex="0045"/>
  <outline>
    <contour>
      <point x="387" y="0" type="line"/>
      <point x="62" y="0" type="line"/>
      <point x="70" y="297" type="line"/>
      <point x="62" y="595" type="line"/>
      <point x="383" y="595" type="line"/>
      <point x="373" y="544" type="line"/>
      <point x="125" y="557" type="line"/>
      <point x="119" y="322" type="line"/>
      <point x="302" y="327" type="line"/>
      <point x="302" y="278" type="line"/>
      <point x="119" y="284" type="line"/>
      <point x="125" y="38" type="line"/>
      <point x="376" y="51" type="line"/>
    </contour>
  </outline>
</glyph>
<glyph name="F" format="1">
  <advance width="409"/>
  <unicode hex="0046"/>
  <outline>
    <contour>
      <point x="383" y="595" type="line"/>
      <point x="373" y="544" type="line"/>
      <point x="125" y="557" type="line"/>
      <point x="119" y="302" type="line"/>
      <point x="302" y="307" type="line"/>
      <point x="302" y="258" type="line"/>
      <point x="119" y="264" type="line"/>
      <point x="126" y="0" type="line"/>
      <point x="62" y="0" type="line"/>
      <point x="70" y="297" type="line"/>
      <point x="62" y="595" type="line"/>
    </contour>
  </outline>
</glyph>
<glyph name="G" format="1">
  <advance width="549"/>
  <unicode hex="0047"/>
  <outline>
    <contour>
      <point x="499" y="47" type="line"/>
      <point x="326" y="-5" type="line"/>
      <point x="258" y="-5" type="line"/>
      <point x="76" y="46" type="line"/>
      <point x="45" y="297" type="line"/>
      <point x="76" y="549" type="line"/>
      <point x="258" y="600" type="line"/>
      <point x="332" y="600" type="line"/>
      <point x="483" y="570" type="line"/>
      <point x="472" y="517" type="line"/>
      <point x="293" y="559" type="line"/>
      <point x="130" y="516" type="line"/>
      <point x="103" y="297" type="line"/>
      <point x="130" y="79" type="line"/>
      <point x="292" y="35" type="line"/>
      <point x="437" y="75" type="line"/>
      <point x="442" y="185" type="line"/>
      <point x="434" y="314" type="line"/>
      <point x="499" y="314" type="line"/>
      <point x="491" y="185" type="line"/>
    </contour>
  </outline>
</glyph>
<glyph name="H" format="1">
  <advance width="573"/>
  <unicode hex="0048"/>
  <outline>
    <contour>
      <point x="511" y="0" type="line"/>
      <point x="445" y="0" type="line"/>
      <point x="453" y="275" type="line"/>
      <point x="121" y="275" type="line"/>
      <point x="128" y="0" type="line"/>
      <point x="62" y="0" type="line"/>
      <point x="70" y="297" type="line"/>
      <point x="62" y="595" type="line"/>
      <point x="128" y="595" type="line"/>
      <point x="121" y="323" type="line"/>
      <point x="453" y="323" type="line"/>
      <point x="445" y="595" type="line"/>
      <point x="511" y="595" type="line"/>
      <point x="503" y="297" type="line"/>
    </contour>
  </outline>
</glyph>
<glyph name="I" format="1">
  <advance width="206"/>
  <unicode hex="0049"/>
  <outline>
    <contour>
      <point x="136" y="0" type="line"/>
      <point x="70" y="0" type="line"/>
      <point x="78" y="297" type="line"/>
      <point x="70" y="595" type="line"/>
      <point x="136" y="595" type="line"/>
      <point x="128" y="297" type="line"/>
    </contour>
  </outline>
</glyph>
<glyph name="J" format="1">
  <advance width="206"/>
  <unicode hex="004A"/>
  <outline>
    <contour>
      <point x="136" y="595" type="line"/>
      <point x="128" y="297" type="line"/>
      <point x="134" y="-119" type="line"/>
      <point x="77" y="-141" type="line"/>
      <point x="-22" y="-129" type="line"/>
      <point x="-22" y="-79" type="line"/>
      <point x="71" y="-93" type="line"/>
      <point x="78" y="297" type="line"/>
      <point x="70" y="595" type="line"/>
    </contour>
  </outline>
</glyph>
<glyph name="K" format="1">
  <advance width="495"/>
  <unicode hex="004B"/>
  <outline>
    <contour>
      <point x="477" y="35" type="line"/>
      <point x="433" y="-10" type="line"/>
      <point x="183" y="288" type="line"/>
      <point x="121" y="229" type="line"/>
      <point x="128" y="0" type="line"/>
      <point x="62" y="0" type="line"/>
      <point x="70" y="297" type="line"/>
      <point x="62" y="595" type="line"/>
      <point x="128" y="595" type="line"/>
      <point x="120" y="285" type="line"/>
      <point x="280" y="445" type="line"/>
      <point x="415" y="605" type="line"/>
      <point x="460" y="561" type="line"/>
      <point x="220" y="326" type="line"/>
    </contour>
  </outline>
</glyph>
<glyph name="L" format="1">
  <advance width="409"/>
  <unicode hex="004C"/>
  <outline>
    <contour>
      <point x="383" y="0" type="line"/>
      <point x="62" y="0" type="line"/>
      <point x="70" y="297" type="line"/>
      <point x="62" y="595" type="line"/>
      <point x="128" y="595" type="line"/>
      <point x="120" y="297" type="line"/>
      <point x="126" y="38" type="line"/>
      <point x="373" y="51" type="line"/>
    </contour>
  </outline>
</glyph>
<glyph name="M" format="1">
  <advance width="656"/>
  <unicode hex="004D"/>
  <outline>
    <contour>
      <point x="594" y="0" type="line"/>
      <point x="530" y="0" type="line"/>
      <point x="540" y="501" type="line"/>
      <point x="357" y="0" type="line"/>
      <point x="313" y="0" type="line"/>
      <point x="112" y="501" type="line"/>
      <point x="120" y="0" type="line"/>
      <point x="62" y="0" type="line"/>
      <point x="70" y="297" type="line"/>
      <point x="62" y="595" type="line"/>
      <point x="132" y="595" type="line"/>
      <point x="230" y="338" type="line"/>
      <point x="341" y="74" type="line"/>
      <point x="432" y="319" type="line"/>
      <point x="526" y="595" type="line"/>
      <point x="594" y="595" type="line"/>
      <point x="586" y="297" type="line"/>
    </contour>
  </outline>
</glyph>
<glyph name="N" format="1">
  <advance width="566"/>
  <unicode hex="004E"/>
  <outline>
    <contour>
      <point x="504" y="0" type="line"/>
      <point x="464" y="0" type="line"/>
      <point x="108" y="517" type="line"/>
      <point x="120" y="0" type="line"/>
      <point x="62" y="0" type="line"/>
      <point x="70" y="297" type="line"/>
      <point x="62" y="595" type="line"/>
      <point x="120" y="595" type="line"/>
      <point x="458" y="103" type="line"/>
      <point x="446" y="595" type="line"/>
      <point x="504" y="595" type="line"/>
      <point x="496" y="297" type="line"/>
    </contour>
  </outline>
</glyph>
<glyph name="O" format="1">
  <advance width="586"/>
  <unicode hex="004F"/>
  <outline>
    <contour>
      <point x="541" y="297" type="line"/>
      <point x="510" y="46" type="line"/>
      <point x="332" y="-5" type="line"/>
      <point x="254" y="-5" type="line"/>
      <point x="76" y="46" type="line"/>
      <point x="45" y="297" type="line"/>
      <point x="76" y="549" type="line"/>
      <point x="254" y="600" type="line"/>
      <point x="332" y="600" type="line"/>
      <point x="510" y="549" type="line"/>
    </contour>
    <contour>
      <point x="483" y="297" type="line"/>
      <point x="456" y="516" type="line"/>
      <point x="293" y="560" type="line"/>
      <point x="130" y="516" type="line"/>
      <point x="103" y="297" type="line"/>
      <point x="130" y="79" type="line"/>
      <point x="293" y="35" type="line"/>
      <point x="456" y="79" type="line"/>
    </contour>
  </outline>
</glyph>
<glyph name="P" format="1">
  <advance width="493"/>
  <unicode hex="0050"/>
  <outline>
    <contour>
      <point x="456" y="411" type="line"/>
      <point x="438" y="279" type="line"/>
      <point x="270" y="228" type="line"/>
      <point x="122" y="228" type="line"/>
      <point x="129" y="0" type="line"/>
      <point x="62" y="0" type="line"/>
      <point x="70" y="297" type="line"/>
      <point x="62" y="595" type="line"/>
      <point x="270" y="595" type="line"/>
      <point x="438" y="544" type="line"/>
    </contour>
    <contour>
      <point x="398" y="411" type="line"/>
      <point x="385" y="508" type="line"/>
      <point x="249" y="547" type="line"/>
      <point x="126" y="547" type="line"/>
      <point x="120" y="276" type="line"/>
      <point x="249" y="276" type="line"/>
      <point x="385" y="315" type="line"/>
    </contour>
  </outline>
</glyph>
<glyph name="Q" format="1">
  <advance width="586"/>
  <unicode hex="0051"/>
  <outline>
    <contour>
      <point x="541" y="297" type="line"/>
      <point x="509" y="46" type="line"/>
      <point x="328" y="-6" type="line"/>
      <point x="360" y="-67" type="line"/>
      <point x="492" y="-67" type="line"/>
      <point x="499" y="-101" type="line"/>
      <point x="365" y="-119" type="line"/>
      <point x="302" y="-91" type="line"/>
      <point x="262" y="-8" type="line"/>
      <point x="76" y="46" type="line"/>
      <point x="45" y="297" type="line"/>
      <point x="76" y="549" type="line"/>
      <point x="254" y="600" type="line"/>
      <point x="332" y="600" type="line"/>
      <point x="509" y="549" type="line"/>
    </contour>
    <contour>
      <point x="482" y="297" type="line"/>
      <point x="456" y="516" type="line"/>
      <point x="293" y="560" type="line"/>
      <point x="130" y="516" type="line"/>
      <point x="103" y="297" type="line"/>
      <point x="130" y="79" type="line"/>
      <point x="292" y="35" type="line"/>
      <point x="456" y="79" type="line"/>
    </contour>
  </outline>
</glyph>
<glyph name="R" format="1">
  <advance width="514"/>
  <unicode hex="0052"/>
  <outline>
    <contour>
      <point x="482" y="26" type="line"/>
      <point x="437" y="-14" type="line"/>
      <point x="202" y="248" type="line"/>
      <point x="122" y="248" type="line"/>
      <point x="129" y="0" type="line"/>
      <point x="62" y="0" type="line"/>
      <point x="70" y="297" type="line"/>
      <point x="62" y="595" type="line"/>
      <point x="270" y="595" type="line"/>
      <point x="438" y="550" type="line"/>
      <point x="456" y="421" type="line"/>
      <point x="438" y="293" type="line"/>
      <point x="273" y="249" type="line"/>
    </contour>
    <contour>
      <point x="398" y="421" type="line"/>
      <point x="385" y="514" type="line"/>
      <point x="249" y="547" type="line"/>
      <point x="126" y="547" type="line"/>
      <point x="120" y="296" type="line"/>
      <point x="249" y="296" type="line"/>
      <point x="385" y="329" type="line"/>
    </contour>
  </outline>
</glyph>
<glyph name="S" format="1">
  <advance width="418"/>
  <unicode hex="0053"/>
  <outline>
    <contour>
      <point x="363" y="43" type="line"/>
      <point x="246" y="-5" type="line"/>
      <point x="167" y="-5" type="line"/>
      <point x="38" y="38" type="line"/>
      <point x="60" y="89" type="line"/>
      <point x="208" y="34" type="line"/>
      <point x="305" y="71" type="line"/>
      <point x="305" y="196" type="line"/>
      <point x="55" y="373" type="line"/>
      <point x="55" y="552" type="line"/>
      <point x="168" y="600" type="line"/>
      <point x="245" y="600" type="line"/>
      <point x="361" y="573" type="line"/>
      <point x="342" y="520" type="line"/>
      <point x="205" y="561" type="line"/>
      <point x="112" y="524" type="line"/>
      <point x="112" y="405" type="line"/>
      <point x="363" y="228" type="line"/>
    </contour>
  </outline>
</glyph>
<glyph name="T" format="1">
  <advance width="468"/>
  <unicode hex="0054"/>
  <outline>
    <contour>
      <point x="451" y="595" type="line"/>
      <point x="440" y="544" type="line"/>
      <point x="265" y="559" type="line"/>
      <point x="259" y="297" type="line"/>
      <point x="267" y="0" type="line"/>
      <point x="201" y="0" type="line"/>
      <point x="209" y="297" type="line"/>
      <point x="203" y="559" type="line"/>
      <point x="28" y="544" type="line"/>
      <point x="17" y="595" type="line"/>
    </contour>
  </outline>
</glyph>
<glyph name="U" format="1">
  <advance width="564"/>
  <unicode hex="0055"/>
  <outline>
    <contour>
      <point x="502" y="47" type="line"/>
      <point x="321" y="-5" type="line"/>
      <point x="243" y="-5" type="line"/>
      <point x="62" y="47" type="line"/>
      <point x="70" y="297" type="line"/>
      <point x="62" y="595" type="line"/>
      <point x="128" y="595" type="line"/>
      <point x="120" y="297" type="line"/>
      <point x="127" y="77" type="line"/>
      <point x="282" y="35" type="line"/>
      <point x="437" y="77" type="line"/>
      <point x="445" y="297" type="line"/>
      <point x="436" y="595" type="line"/>
      <point x="502" y="595" type="line"/>
      <point x="494" y="297" type="line"/>
    </contour>
  </outline>
</glyph>
<glyph name="V" format="1">
  <advance width="556"/>
  <unicode hex="0056"/>
  <outline>
    <contour>
      <point x="523" y="582" type="line"/>
      <point x="408" y="274" type="line"/>
      <point x="313" y="-2" type="line"/>
      <point x="248" y="-2" type="line"/>
      <point x="154" y="267" type="line"/>
      <point x="33" y="579" type="line"/>
      <point x="91" y="606" type="line"/>
      <point x="167" y="378" type="line"/>
      <point x="284" y="56" type="line"/>
      <point x="396" y="377" type="line"/>
      <point x="471" y="606" type="line"/>
    </contour>
  </outline>
</glyph>
<glyph name="W" format="1">
  <advance width="820"/>
  <unicode hex="0057"/>
  <outline>
    <contour>
      <point x="788" y="582" type="line"/>
      <point x="677" y="274" type="line"/>
      <point x="587" y="-2" type="line"/>
      <point x="521" y="-2" type="line"/>
      <point x="411" y="321" type="line"/>
      <point x="303" y="-2" type="line"/>
      <point x="238" y="-2" type="line"/>
      <point x="149" y="267" type="line"/>
      <point x="32" y="579" type="line"/>
      <point x="90" y="606" type="line"/>
      <point x="161" y="378" type="line"/>
      <point x="274" y="56" type="line"/>
      <point x="385" y="387" type="line"/>
      <point x="311" y="579" type="line"/>
      <point x="369" y="606" type="line"/>
      <point x="445" y="378" type="line"/>
      <point x="557" y="56" type="line"/>
      <point x="665" y="377" type="line"/>
      <point x="735" y="606" type="line"/>
    </contour>
  </outline>
</glyph>
<glyph name="X" format="1">
  <advance width="521"/>
  <unicode hex="0058"/>
  <outline>
    <contour>
      <point x="489" y="23" type="line"/>
      <point x="435" y="-11" type="line"/>
      <point x="258" y="268" type="line"/>
      <point x="76" y="-11" type="line"/>
      <point x="32" y="20" type="line"/>
      <point x="233" y="308" type="line"/>
      <point x="54" y="572" type="line"/>
      <point x="108" y="606" type="line"/>
      <point x="265" y="357" type="line"/>
      <point x="426" y="606" type="line"/>
      <point x="470" y="575" type="line"/>
      <point x="291" y="318" type="line"/>
    </contour>
  </outline>
</glyph>
<glyph name="Y" format="1">
  <advance width="519"/>
  <unicode hex="0059"/>
  <outline>
    <contour>
      <point x="501" y="580" type="line"/>
      <point x="289" y="258" type="line"/>
      <point x="296" y="0" type="line"/>
      <point x="230" y="0" type="line"/>
      <point x="236" y="255" type="line"/>
      <point x="18" y="575" type="line"/>
      <point x="71" y="606" type="line"/>
      <point x="149" y="475" type="line"/>
      <point x="268" y="303" type="line"/>
      <point x="386" y="480" type="line"/>
      <point x="454" y="606" type="line"/>
    </contour>
  </outline>
</glyph>
<glyph name="Z" format="1">
  <advance width="464"/>
  <unicode hex="005A"/>
  <outline>
    <contour>
      <point x="423" y="0" type="line"/>
      <point x="47" y="0" type="line"/>
      <point x="38" y="23" type="line"/>
      <point x="352" y="558" type="line"/>
      <point x="73" y="544" type="line"/>
      <point x="63" y="595" type="line"/>
      <point x="414" y="595" type="line"/>
      <point x="423" y="567" type="line"/>
      <point x="102" y="36" type="line"/>
      <point x="413" y="51" type="line"/>
    </contour>
  </outline>
</glyph>
<glyph name="bracketleft" format="1">
  <advance width="333"/>
  <unicode hex="005B"/>
  <outline>
    <contour>
      <point x="298" y="-140" type="line"/>
      <point x="64" y="-140" type="line"/>
      <point x="72" y="227" type="line"/>
      <point x="64" y="595" type="line"/>
      <point x="298" y="595" type="line"/>
      <point x="288" y="546" type="line"/>
      <point x="125" y="554" type="line"/>
      <point x="119" y="227" type="line"/>
      <point x="125" y="-99" type="line"/>
      <point x="288" y="-91" type="line"/>
    </contour>
  </outline>
</glyph>
<glyph name="backslash" format="1">
  <advance width="363"/>
  <unicode hex="005C"/>
  <outline>
    <contour>
      <point x="362" y="-133" type="line"/>
      <point x="323" y="-147" type="line"/>
      <point x="203" y="136" type="line"/>
      <point x="37" y="588" type="line"/>
      <point x="76" y="602" type="line"/>
      <point x="196" y="319" type="line"/>
    </contour>
  </outline>
</glyph>
<glyph name="bracketright" format="1">
  <advance width="333"/>
  <unicode hex="005D"/>
  <outline>
    <contour>
      <point x="269" y="-140" type="line"/>
      <point x="35" y="-140" type="line"/>
      <point x="45" y="-91" type="line"/>
      <point x="208" y="-99" type="line"/>
      <point x="214" y="227" type="line"/>
      <point x="208" y="554" type="line"/>
      <point x="45" y="546" type="line"/>
      <point x="35" y="595" type="line"/>
      <point x="269" y="595" type="line"/>
      <point x="261" y="227" type="line"/>
    </contour>
  </outline>
</glyph>
<glyph name="asciicircum" format="1">
  <advance width="428"/>
  <unicode hex="005E"/>
  <outline>
    <contour>
      <point x="362" y="468" type="line"/>
      <point x="341" y="440" type="line"/>
      <point x="214" y="510" type="line"/>
      <point x="87" y="440" type="line"/>
      <point x="66" y="468" type="line"/>
      <point x="160" y="543" type="line"/>
      <point x="193" y="595" type="line"/>
      <point x="235" y="595" type="line"/>
      <point x="268" y="543" type="line"/>
    </contour>
  </outline>
</glyph>
<glyph name="grave" format="1">
  <advance width="438"/>
  <unicode hex="0060"/>
  <outline>
    <contour>
      <point x="301" y="427" type="line"/>
      <point x="293" y="404" type="line"/>
      <point x="183" y="434" type="line"/>
      <point x="129" y="479" type="line"/>
      <point x="178" y="519" type="line"/>
      <point x="231" y="467" type="line"/>
    </contour>
  </outline>
</glyph>
<glyph name="a" format="1">
  <advance width="400"/>
  <unicode hex="0061"/>
  <outline>
    <contour>
      <point x="344" y="0" type="line"/>
      <point x="275" y="0" type="line"/>
      <point x="276" y="30" type="line"/>
      <point x="166" y="-5" type="line"/>
      <point x="54" y="25" type="line"/>
      <point x="39" y="116" type="line"/>
      <point x="54" y="207" type="line"/>
      <point x="189" y="236" type="line"/>
      <point x="282" y="210" type="line"/>
      <point x="279" y="303" type="line"/>
      <point x="239" y="335" type="line"/>
      <point x="184" y="335" type="line"/>
      <point x="70" y="303" type="line"/>
      <point x="57" y="351" type="line"/>
      <point x="160" y="375" type="line"/>
      <point x="273" y="375" type="line"/>
      <point x="342" y="330" type="line"/>
      <point x="336" y="184" type="line"/>
    </contour>
    <contour>
      <point x="282" y="167" type="line"/>
      <point x="185" y="193" type="line"/>
      <point x="106" y="173" type="line"/>
      <point x="98" y="115" type="line"/>
      <point x="106" y="58" type="line"/>
      <point x="183" y="42" type="line"/>
      <point x="278" y="70" type="line"/>
    </contour>
  </outline>
</glyph>
<glyph name="b" format="1">
  <advance width="410"/>
  <unicode hex="0062"/>
  <outline>
    <contour>
      <point x="361" y="188" type="line"/>
      <point x="346" y="11" type="line"/>
      <point x="246" y="-5" type="line"/>
      <point x="122" y="31" type="line"/>
      <point x="123" y="0" type="line"/>
      <point x="57" y="0" type="line"/>
      <point x="65" y="375" type="line"/>
      <point x="57" y="750" type="line"/>
      <point x="123" y="750" type="line"/>
      <point x="115" y="375" type="line"/>
      <point x="116" y="342" type="line"/>
      <point x="247" y="380" type="line"/>
      <point x="346" y="364" type="line"/>
    </contour>
    <contour>
      <point x="303" y="187" type="line"/>
      <point x="291" y="320" type="line"/>
      <point x="230" y="330" type="line"/>
      <point x="117" y="300" type="line"/>
      <point x="121" y="74" type="line"/>
      <point x="230" y="45" type="line"/>
      <point x="291" y="55" type="line"/>
    </contour>
  </outline>
</glyph>
<glyph name="c" format="1">
  <advance width="357"/>
  <unicode hex="0063"/>
  <outline>
    <contour>
      <point x="321" y="16" type="line"/>
      <point x="237" y="-5" type="line"/>
      <point x="162" y="-5" type="line"/>
      <point x="64" y="20" type="line"/>
      <point x="49" y="188" type="line"/>
      <point x="64" y="355" type="line"/>
      <point x="162" y="380" type="line"/>
      <point x="237" y="380" type="line"/>
      <point x="319" y="369" type="line"/>
      <point x="305" y="310" type="line"/>
      <point x="200" y="342" type="line"/>
      <point x="119" y="324" type="line"/>
      <point x="107" y="188" type="line"/>
      <point x="119" y="51" type="line"/>
      <point x="199" y="33" type="line"/>
      <point x="311" y="62" type="line"/>
    </contour>
  </outline>
</glyph>
<glyph name="d" format="1">
  <advance width="410"/>
  <unicode hex="0064"/>
  <outline>
    <contour>
      <point x="354" y="0" type="line"/>
      <point x="288" y="0" type="line"/>
      <point x="289" y="31" type="line"/>
      <point x="165" y="-5" type="line"/>
      <point x="65" y="11" type="line"/>
      <point x="50" y="188" type="line"/>
      <point x="65" y="364" type="line"/>
      <point x="164" y="380" type="line"/>
      <point x="295" y="342" type="line"/>
      <point x="296" y="375" type="line"/>
      <point x="288" y="750" type="line"/>
      <point x="354" y="750" type="line"/>
      <point x="346" y="375" type="line"/>
    </contour>
    <contour>
      <point x="294" y="300" type="line"/>
      <point x="181" y="330" type="line"/>
      <point x="120" y="320" type="line"/>
      <point x="108" y="188" type="line"/>
      <point x="120" y="55" type="line"/>
      <point x="181" y="45" type="line"/>
      <point x="290" y="74" type="line"/>
    </contour>
  </outline>
</glyph>
<glyph name="e" format="1">
  <advance width="372"/>
  <unicode hex="0065"/>
  <outline>
    <contour>
      <point x="331" y="206" type="line"/>
      <point x="110" y="150" type="line"/>
      <point x="119" y="51" type="line"/>
      <point x="199" y="33" type="line"/>
      <point x="318" y="61" type="line"/>
      <point x="328" y="15" type="line"/>
      <point x="237" y="-5" type="line"/>
      <point x="162" y="-5" type="line"/>
      <point x="64" y="20" type="line"/>
      <point x="49" y="188" type="line"/>
      <point x="64" y="355" type="line"/>
      <point x="162" y="380" type="line"/>
      <point x="237" y="380" type="line"/>
      <point x="318" y="356" type="line"/>
    </contour>
    <contour>
      <point x="271" y="232" type="line"/>
      <point x="264" y="328" type="line"/>
      <point x="195" y="342" type="line"/>
      <point x="119" y="324" type="line"/>
      <point x="107" y="190" type="line"/>
    </contour>
  </outline>
</glyph>
<glyph name="f" format="1">
  <advance width="208"/>
  <unicode hex="0066"/>
  <outline>
    <contour>
      <point x="218" y="695" type="line"/>
      <point x="123" y="706" type="line"/>
      <point x="118" y="380" type="line"/>
      <point x="191" y="374" type="line"/>
      <point x="191" y="337" type="line"/>
      <point x="119" y="332" type="line"/>
      <point x="124" y="0" type="line"/>
      <point x="62" y="0" type="line"/>
      <point x="67" y="334" type="line"/>
      <point x="36" y="337" type="line"/>
      <point x="36" y="374" type="line"/>
      <point x="68" y="378" type="line"/>
      <point x="62" y="730" type="line"/>
      <point x="136" y="750" type="line"/>
      <point x="218" y="744" type="line"/>
    </contour>
  </outline>
</glyph>
<glyph name="g" format="1">
  <advance width="410"/>
  <unicode hex="0067"/>
  <outline>
    <contour>
      <point x="378" y="463" type="line"/>
      <point x="302" y="362" type="line"/>
      <point x="345" y="351" type="line"/>
      <point x="360" y="240" type="line"/>
      <point x="345" y="128" type="line"/>
      <point x="237" y="99" type="line"/>
      <point x="181" y="99" type="line"/>
      <point x="156" y="62" type="line"/>
      <point x="353" y="23" type="line"/>
      <point x="364" y="-44" type="line"/>
      <point x="351" y="-112" type="line"/>
      <point x="226" y="-140" type="line"/>
      <point x="162" y="-140" type="line"/>
      <point x="30" y="-117" type="line"/>
      <point x="39" y="-63" type="line"/>
      <point x="197" y="-101" type="line"/>
      <point x="294" y="-81" type="line"/>
      <point x="302" y="-49" type="line"/>
      <point x="295" y="-13" type="line"/>
      <point x="95" y="26" type="line"/>
      <point x="95" y="59" type="line"/>
      <point x="134" y="108" type="line"/>
      <point x="60" y="128" type="line"/>
      <point x="45" y="240" type="line"/>
      <point x="60" y="351" type="line"/>
      <point x="168" y="380" type="line"/>
      <point x="237" y="380" type="line"/>
      <point x="263" y="373" type="line"/>
      <point x="328" y="491" type="line"/>
    </contour>
    <contour>
      <point x="304" y="240" type="line"/>
      <point x="295" y="323" type="line"/>
      <point x="203" y="342" type="line"/>
      <point x="111" y="323" type="line"/>
      <point x="101" y="240" type="line"/>
      <point x="110" y="156" type="line"/>
      <point x="202" y="137" type="line"/>
      <point x="294" y="156" type="line"/>
    </contour>
  </outline>
</glyph>
<glyph name="h" format="1">
  <advance width="417"/>
  <unicode hex="0068"/>
  <outline>
    <contour>
      <point x="361" y="0" type="line"/>
      <point x="292" y="0" type="line"/>
      <point x="300" y="188" type="line"/>
      <point x="295" y="319" type="line"/>
      <point x="228" y="330" type="line"/>
      <point x="117" y="300" type="line"/>
      <point x="123" y="0" type="line"/>
      <point x="57" y="0" type="line"/>
      <point x="65" y="375" type="line"/>
      <point x="57" y="750" type="line"/>
      <point x="123" y="750" type="line"/>
      <point x="115" y="375" type="line"/>
      <point x="116" y="342" type="line"/>
      <point x="245" y="380" type="line"/>
      <point x="360" y="361" type="line"/>
      <point x="353" y="188" type="line"/>
    </contour>
  </outline>
</glyph>
<glyph name="i" format="1">
  <advance width="199"/>
  <unicode hex="0069"/>
  <outline>
    <contour>
      <point x="134" y="542" type="line"/>
      <point x="130" y="499" type="line"/>
      <point x="69" y="499" type="line"/>
      <point x="65" y="542" type="line"/>
      <point x="69" y="585" type="line"/>
      <point x="130" y="585" type="line"/>
    </contour>
    <contour>
      <point x="134" y="0" type="line"/>
      <point x="65" y="0" type="line"/>
      <point x="73" y="187" type="line"/>
      <point x="65" y="375" type="line"/>
      <point x="134" y="375" type="line"/>
      <point x="126" y="187" type="line"/>
    </contour>
  </outline>
</glyph>
<glyph name="j" format="1">
  <advance width="199"/>
  <unicode hex="006A"/>
  <outline>
    <contour>
      <point x="134" y="542" type="line"/>
      <point x="130" y="499" type="line"/>
      <point x="69" y="499" type="line"/>
      <point x="65" y="542" type="line"/>
      <point x="69" y="585" type="line"/>
      <point x="130" y="585" type="line"/>
    </contour>
    <contour>
      <point x="134" y="-122" type="line"/>
      <point x="60" y="-142" type="line"/>
      <point x="-7" y="-136" type="line"/>
      <point x="-7" y="-88" type="line"/>
      <point x="70" y="-98" type="line"/>
      <point x="73" y="149" type="line"/>
      <point x="65" y="375" type="line"/>
      <point x="134" y="375" type="line"/>
      <point x="126" y="149" type="line"/>
    </contour>
  </outline>
</glyph>
<glyph name="k" format="1">
  <advance width="361"/>
  <unicode hex="006B"/>
  <outline>
    <contour>
      <point x="351" y="36" type="line"/>
      <point x="310" y="-13" type="line"/>
      <point x="153" y="153" type="line"/>
      <point x="120" y="118" type="line"/>
      <point x="123" y="0" type="line"/>
      <point x="57" y="0" type="line"/>
      <point x="65" y="375" type="line"/>
      <point x="57" y="750" type="line"/>
      <point x="123" y="750" type="line"/>
      <point x="115" y="375" type="line"/>
      <point x="119" y="177" type="line"/>
      <point x="217" y="294" type="line"/>
      <point x="282" y="387" type="line"/>
      <point x="329" y="345" type="line"/>
      <point x="186" y="189" type="line"/>
    </contour>
  </outline>
</glyph>
<glyph name="l" format="1">
  <advance width="196"/>
  <unicode hex="006C"/>
  <outline>
    <contour>
      <point x="131" y="0" type="line"/>
      <point x="65" y="0" type="line"/>
      <point x="72" y="375" type="line"/>
      <point x="65" y="750" type="line"/>
      <point x="131" y="750" type="line"/>
      <point x="124" y="375" type="line"/>
    </contour>
  </outline>
</glyph>
<glyph name="m" format="1">
  <advance width="636"/>
  <unicode hex="006D"/>
  <outline>
    <contour>
      <point x="580" y="0" type="line"/>
      <point x="511" y="0" type="line"/>
      <point x="519" y="188" type="line"/>
      <point x="514" y="319" type="line"/>
      <point x="447" y="330" type="line"/>
      <point x="349" y="302" type="line"/>
      <point x="345" y="188" type="line"/>
      <point x="353" y="0" type="line"/>
      <point x="284" y="0" type="line"/>
      <point x="292" y="188" type="line"/>
      <point x="287" y="319" type="line"/>
      <point x="220" y="330" type="line"/>
      <point x="122" y="302" type="line"/>
      <point x="118" y="188" type="line"/>
      <point x="126" y="0" type="line"/>
      <point x="57" y="0" type="line"/>
      <point x="65" y="188" type="line"/>
      <point x="57" y="375" type="line"/>
      <point x="126" y="375" type="line"/>
      <point x="125" y="345" type="line"/>
      <point x="237" y="380" type="line"/>
      <point x="352" y="361" type="line"/>
      <point x="352" y="345" type="line"/>
      <point x="464" y="380" type="line"/>
      <point x="579" y="361" type="line"/>
      <point x="572" y="188" type="line"/>
    </contour>
  </outline>
</glyph>
<glyph name="n" format="1">
  <advance width="417"/>
  <unicode hex="006E"/>
  <outline>
    <contour>
      <point x="361" y="0" type="line"/>
      <point x="292" y="0" type="line"/>
      <point x="300" y="188" type="line"/>
      <point x="295" y="319" type="line"/>
      <point x="228" y="330" type="line"/>
      <point x="122" y="302" type="line"/>
      <point x="118" y="188" type="line"/>
      <point x="126" y="0" type="line"/>
      <point x="57" y="0" type="line"/>
      <point x="65" y="188" type="line"/>
      <point x="57" y="375" type="line"/>
      <point x="126" y="375" type="line"/>
      <point x="125" y="345" type="line"/>
      <point x="245" y="380" type="line"/>
      <point x="360" y="361" type="line"/>
      <point x="353" y="188" type="line"/>
    </contour>
  </outline>
</glyph>
<glyph name="o" format="1">
  <advance width="417"/>
  <unicode hex="006F"/>
  <outline>
    <contour>
      <point x="368" y="188" type="line"/>
      <point x="353" y="20" type="line"/>
      <point x="246" y="-5" type="line"/>
      <point x="171" y="-5" type="line"/>
      <point x="64" y="20" type="line"/>
      <point x="49" y="188" type="line"/>
      <point x="64" y="355" type="line"/>
      <point x="171" y="380" type="line"/>
      <point x="246" y="380" type="line"/>
      <point x="353" y="355" type="line"/>
    </contour>
    <contour>
      <point x="310" y="188" type="line"/>
      <point x="298" y="324" type="line"/>
      <point x="209" y="342" type="line"/>
      <point x="119" y="324" type="line"/>
      <point x="107" y="188" type="line"/>
      <point x="119" y="51" type="line"/>
      <point x="208" y="33" type="line"/>
      <point x="298" y="51" type="line"/>
    </contour>
  </outline>
</glyph>
<glyph name="p" format="1">
  <advance width="410"/>
  <unicode hex="0070"/>
  <outline>
    <contour>
      <point x="361" y="188" type="line"/>
      <point x="346" y="11" type="line"/>
      <point x="246" y="-5" type="line"/>
      <point x="117" y="32" type="line"/>
      <point x="123" y="-140" type="line"/>
      <point x="57" y="-140" type="line"/>
      <point x="65" y="118" type="line"/>
      <point x="57" y="375" type="line"/>
      <point x="123" y="375" type="line"/>
      <point x="122" y="344" type="line"/>
      <point x="247" y="380" type="line"/>
      <point x="346" y="364" type="line"/>
    </contour>
    <contour>
      <point x="303" y="188" type="line"/>
      <point x="291" y="320" type="line"/>
      <point x="230" y="330" type="line"/>
      <point x="121" y="301" type="line"/>
      <point x="115" y="118" type="line"/>
      <point x="116" y="75" type="line"/>
      <point x="230" y="45" type="line"/>
      <point x="291" y="55" type="line"/>
    </contour>
  </outline>
</glyph>
<glyph name="q" format="1">
  <advance width="410"/>
  <unicode hex="0071"/>
  <outline>
    <contour>
      <point x="353" y="-140" type="line"/>
      <point x="287" y="-140" type="line"/>
      <point x="293" y="32" type="line"/>
      <point x="164" y="-5" type="line"/>
      <point x="64" y="11" type="line"/>
      <point x="49" y="188" type="line"/>
      <point x="64" y="364" type="line"/>
      <point x="163" y="380" type="line"/>
      <point x="288" y="344" type="line"/>
      <point x="287" y="375" type="line"/>
      <point x="353" y="375" type="line"/>
      <point x="345" y="118" type="line"/>
    </contour>
    <contour>
      <point x="295" y="118" type="line"/>
      <point x="289" y="301" type="line"/>
      <point x="180" y="330" type="line"/>
      <point x="119" y="320" type="line"/>
      <point x="107" y="188" type="line"/>
      <point x="119" y="55" type="line"/>
      <point x="180" y="45" type="line"/>
      <point x="294" y="75" type="line"/>
    </contour>
  </outline>
</glyph>
<glyph name="r" format="1">
  <advance width="291"/>
  <unicode hex="0072"/>
  <outline>
    <contour>
      <point x="266" y="376" type="line"/>
      <point x="256" y="320" type="line"/>
      <point x="197" y="328" type="line"/>
      <point x="122" y="302" type="line"/>
      <point x="118" y="188" type="line"/>
      <point x="126" y="0" type="line"/>
      <point x="57" y="0" type="line"/>
      <point x="65" y="188" type="line"/>
      <point x="57" y="375" type="line"/>
      <point x="126" y="375" type="line"/>
      <point x="125" y="345" type="line"/>
      <point x="207" y="380" type="line"/>
    </contour>
  </outline>
</glyph>
<glyph name="s" format="1">
  <advance width="342"/>
  <unicode hex="0073"/>
  <outline>
    <contour>
      <point x="295" y="26" type="line"/>
      <point x="211" y="-5" type="line"/>
      <point x="136" y="-5" type="line"/>
      <point x="37" y="22" type="line"/>
      <point x="55" y="70" type="line"/>
      <point x="173" y="32" type="line"/>
      <point x="241" y="54" type="line"/>
      <point x="241" y="120" type="line"/>
      <point x="52" y="222" type="line"/>
      <point x="52" y="349" type="line"/>
      <point x="138" y="380" type="line"/>
      <point x="209" y="380" type="line"/>
      <point x="294" y="369" type="line"/>
      <point x="281" y="316" type="line"/>
      <point x="169" y="343" type="line"/>
      <point x="106" y="321" type="line"/>
      <point x="106" y="256" type="line"/>
      <point x="295" y="154" type="line"/>
    </contour>
  </outline>
</glyph>
<glyph name="t" format="1">
  <advance width="241"/>
  <unicode hex="0074"/>
  <outline>
    <contour>
      <point x="210" y="0" type="line"/>
      <point x="138" y="-5" type="line"/>
      <point x="64" y="15" type="line"/>
      <point x="70" y="333" type="line"/>
      <point x="36" y="337" type="line"/>
      <point x="36" y="374" type="line"/>
      <point x="69" y="378" type="line"/>
      <point x="63" y="550" type="line"/>
      <point x="127" y="550" type="line"/>
      <point x="121" y="379" type="line"/>
      <point x="191" y="374" type="line"/>
      <point x="191" y="337" type="line"/>
      <point x="120" y="331" type="line"/>
      <point x="125" y="38" type="line"/>
      <point x="210" y="48" type="line"/>
    </contour>
  </outline>
</glyph>
<glyph name="u" format="1">
  <advance width="417"/>
  <unicode hex="0075"/>
  <outline>
    <contour>
      <point x="360" y="0" type="line"/>
      <point x="291" y="0" type="line"/>
      <point x="292" y="30" type="line"/>
      <point x="172" y="-5" type="line"/>
      <point x="57" y="14" type="line"/>
      <point x="64" y="187" type="line"/>
      <point x="56" y="375" type="line"/>
      <point x="125" y="375" type="line"/>
      <point x="117" y="187" type="line"/>
      <point x="122" y="56" type="line"/>
      <point x="189" y="45" type="line"/>
      <point x="295" y="73" type="line"/>
      <point x="299" y="187" type="line"/>
      <point x="291" y="375" type="line"/>
      <point x="360" y="375" type="line"/>
      <point x="352" y="187" type="line"/>
    </contour>
  </outline>
</glyph>
<glyph name="v" format="1">
  <advance width="393"/>
  <unicode hex="0076"/>
  <outline>
    <contour>
      <point x="365" y="375" type="line"/>
      <point x="289" y="175" type="line"/>
      <point x="231" y="0" type="line"/>
      <point x="169" y="0" type="line"/>
      <point x="110" y="169" type="line"/>
      <point x="28" y="367" type="line"/>
      <point x="95" y="388" type="line"/>
      <point x="142" y="232" type="line"/>
      <point x="203" y="65" type="line"/>
      <point x="268" y="245" type="line"/>
      <point x="308" y="388" type="line"/>
    </contour>
  </outline>
</glyph>
<glyph name="w" format="1">
  <advance width="594"/>
  <unicode hex="0077"/>
  <outline>
    <contour>
      <point x="566" y="375" type="line"/>
      <point x="490" y="175" type="line"/>
      <point x="432" y="0" type="line"/>
      <point x="370" y="0" type="line"/>
      <point x="298" y="201" type="line"/>
      <point x="231" y="0" type="line"/>
      <point x="169" y="0" type="line"/>
      <point x="110" y="169" type="line"/>
      <point x="28" y="367" type="line"/>
      <point x="95" y="388" type="line"/>
      <point x="142" y="232" type="line"/>
      <point x="203" y="65" type="line"/>
      <point x="274" y="260" type="line"/>
      <point x="229" y="367" type="line"/>
      <point x="296" y="388" type="line"/>
      <point x="343" y="232" type="line"/>
      <point x="404" y="65" type="line"/>
      <point x="469" y="245" type="line"/>
      <point x="509" y="388" type="line"/>
    </contour>
  </outline>
</glyph>
<glyph name="x" format="1">
  <advance width="392"/>
  <unicode hex="0078"/>
  <outline>
    <contour>
      <point x="364" y="23" type="line"/>
      <point x="315" y="-13" type="line"/>
      <point x="193" y="157" type="line"/>
      <point x="71" y="-13" type="line"/>
      <point x="28" y="20" type="line"/>
      <point x="169" y="192" type="line"/>
      <point x="38" y="352" type="line"/>
      <point x="87" y="388" type="line"/>
      <point x="200" y="229" type="line"/>
      <point x="311" y="388" type="line"/>
      <point x="354" y="355" type="line"/>
      <point x="223" y="196" type="line"/>
    </contour>
  </outline>
</glyph>
<glyph name="y" format="1">
  <advance width="417"/>
  <unicode hex="0079"/>
  <outline>
    <contour>
      <point x="360" y="-115" type="line"/>
      <point x="247" y="-140" type="line"/>
      <point x="153" y="-140" type="line"/>
      <point x="49" y="-122" type="line"/>
      <point x="61" y="-69" type="line"/>
      <point x="202" y="-102" type="line"/>
      <point x="293" y="-83" type="line"/>
      <point x="296" y="31" type="line"/>
      <point x="172" y="-5" type="line"/>
      <point x="57" y="14" type="line"/>
      <point x="64" y="187" type="line"/>
      <point x="56" y="375" type="line"/>
      <point x="125" y="375" type="line"/>
      <point x="117" y="187" type="line"/>
      <point x="122" y="56" type="line"/>
      <point x="189" y="45" type="line"/>
      <point x="297" y="74" type="line"/>
      <point x="299" y="187" type="line"/>
      <point x="291" y="375" type="line"/>
      <point x="360" y="375" type="line"/>
      <point x="352" y="187" type="line"/>
    </contour>
  </outline>
</glyph>
<glyph name="z" format="1">
  <advance width="351"/>
  <unicode hex="007A"/>
  <outline>
    <contour>
      <point x="318" y="0" type="line"/>
      <point x="37" y="0" type="line"/>
      <point x="27" y="30" type="line"/>
      <point x="243" y="335" type="line"/>
      <point x="57" y="323" type="line"/>
      <point x="47" y="375" type="line"/>
      <point x="303" y="375" type="line"/>
      <point x="313" y="345" type="line"/>
      <point x="97" y="40" type="line"/>
      <point x="308" y="53" type="line"/>
    </contour>
  </outline>
</glyph>
<glyph name="braceleft" format="1">
  <advance width="438"/>
  <unicode hex="007B"/>
  <outline>
    <contour>
      <point x="397" y="-111" type="line"/>
      <point x="371" y="-152" type="line"/>
      <point x="163" y="-41" type="line"/>
      <point x="203" y="125" type="line"/>
      <point x="100" y="198" type="line"/>
      <point x="29" y="210" type="line"/>
      <point x="29" y="244" type="line"/>
      <point x="100" y="256" type="line"/>
      <point x="203" y="329" type="line"/>
      <point x="163" y="496" type="line"/>
      <point x="371" y="607" type="line"/>
      <point x="397" y="566" type="line"/>
      <point x="223" y="474" type="line"/>
      <point x="263" y="313" type="line"/>
      <point x="134" y="227" type="line"/>
      <point x="263" y="141" type="line"/>
      <point x="223" y="-19" type="line"/>
    </contour>
  </outline>
</glyph>
<glyph name="bar" format="1">
  <advance width="237"/>
  <unicode hex="007C"/>
  <outline>
    <contour>
      <point x="146" y="227" type="line"/>
      <point x="140" y="-140" type="line"/>
      <point x="97" y="-140" type="line"/>
      <point x="91" y="227" type="line"/>
      <point x="97" y="595" type="line"/>
      <point x="140" y="595" type="line"/>
    </contour>
  </outline>
</glyph>
<glyph name="braceright" format="1">
  <advance width="438"/>
  <unicode hex="007D"/>
  <outline>
    <contour>
      <point x="409" y="210" type="line"/>
      <point x="338" y="198" type="line"/>
      <point x="235" y="125" type="line"/>
      <point x="275" y="-41" type="line"/>
      <point x="67" y="-152" type="line"/>
      <point x="41" y="-111" type="line"/>
      <point x="215" y="-19" type="line"/>
      <point x="175" y="141" type="line"/>
      <point x="304" y="227" type="line"/>
      <point x="175" y="313" type="line"/>
      <point x="215" y="474" type="line"/>
      <point x="41" y="566" type="line"/>
      <point x="67" y="607" type="line"/>
      <point x="275" y="496" type="line"/>
      <point x="235" y="329" type="line"/>
      <point x="338" y="256" type="line"/>
      <point x="409" y="244" type="line"/>
    </contour>
  </outline>
</glyph>
<glyph name="asciitilde" format="1">
  <advance width="428"/>
  <unicode hex="007E"/>
  <outline>
    <contour>
      <point x="386" y="272" type="line"/>
      <point x="322" y="218" type="line"/>
      <point x="274" y="160" type="line"/>
      <point x="235" y="160" type="line"/>
      <point x="164" y="229" type="line"/>
      <point x="67" y="157" type="line"/>
      <point x="42" y="184" type="line"/>
      <point x="106" y="238" type="line"/>
      <point x="154" y="296" type="line"/>
      <point x="193" y="296" type="line"/>
      <point x="264" y="227" type="line"/>
      <point x="361" y="299" type="line"/>
    </contour>
  </outline>
</glyph>
<glyph name="cent" format="1">
  <advance width="448"/>
  <unicode hex="00A2"/>
  <outline>
    <contour>
      <point x="410" y="500" type="line"/>
      <point x="394" y="447" type="line"/>
      <point x="254" y="489" type="line"/>
      <point x="130" y="446" type="line"/>
      <point x="103" y="297" type="line"/>
      <point x="130" y="149" type="line"/>
      <point x="253" y="105" type="line"/>
      <point x="387" y="154" type="line"/>
      <point x="406" y="112" type="line"/>
      <point x="281" y="62" type="line"/>
      <point x="286" y="-10" type="line"/>
      <point x="222" y="-10" type="line"/>
      <point x="227" y="62" type="line"/>
      <point x="76" y="116" type="line"/>
      <point x="45" y="297" type="line"/>
      <point x="76" y="479" type="line"/>
      <point x="227" y="533" type="line"/>
      <point x="222" y="605" type="line"/>
      <point x="286" y="605" type="line"/>
      <point x="281" y="533" type="line"/>
    </contour>
  </outline>
</glyph>
<glyph name="sterling" format="1">
  <advance width="487"/>
  <unicode hex="00A3"/>
  <outline>
    <contour>
      <point x="458" y="0" type="line"/>
      <point x="35" y="0" type="line"/>
      <point x="35" y="40" type="line"/>
      <point x="109" y="39" type="line"/>
      <point x="142" y="171" type="line"/>
      <point x="122" y="271" type="line"/>
      <point x="41" y="276" type="line"/>
      <point x="41" y="312" type="line"/>
      <point x="113" y="316" type="line"/>
      <point x="98" y="389" type="line"/>
      <point x="98" y="548" type="line"/>
      <point x="244" y="600" type="line"/>
      <point x="318" y="600" type="line"/>
      <point x="455" y="570" type="line"/>
      <point x="439" y="517" type="line"/>
      <point x="279" y="559" type="line"/>
      <point x="156" y="517" type="line"/>
      <point x="156" y="400" type="line"/>
      <point x="174" y="318" type="line"/>
      <point x="326" y="312" type="line"/>
      <point x="326" y="276" type="line"/>
      <point x="184" y="270" type="line"/>
      <point x="205" y="174" type="line"/>
      <point x="168" y="38" type="line"/>
      <point x="447" y="50" type="line"/>
    </contour>
  </outline>
</glyph>
<glyph name="yen" format="1">
  <advance width="527"/>
  <unicode hex="00A5"/>
  <outline>
    <contour>
      <point x="505" y="580" type="line"/>
      <point x="303" y="274" type="line"/>
      <point x="445" y="270" type="line"/>
      <point x="445" y="235" type="line"/>
      <point x="294" y="231" type="line"/>
      <point x="296" y="159" type="line"/>
      <point x="445" y="155" type="line"/>
      <point x="445" y="120" type="line"/>
      <point x="297" y="116" type="line"/>
      <point x="300" y="0" type="line"/>
      <point x="234" y="0" type="line"/>
      <point x="237" y="116" type="line"/>
      <point x="88" y="120" type="line"/>
      <point x="88" y="155" type="line"/>
      <point x="238" y="159" type="line"/>
      <point x="239" y="231" type="line"/>
      <point x="88" y="235" type="line"/>
      <point x="88" y="270" type="line"/>
      <point x="227" y="274" type="line"/>
      <point x="22" y="575" type="line"/>
      <point x="75" y="606" type="line"/>
      <point x="153" y="475" type="line"/>
      <point x="272" y="303" type="line"/>
      <point x="390" y="480" type="line"/>
      <point x="458" y="606" type="line"/>
    </contour>
  </outline>
</glyph>
<glyph name="section" format="1">
  <advance width="478"/>
  <unicode hex="00A7"/>
  <outline>
    <contour>
      <point x="418" y="302" type="line"/>
      <point x="352" y="186" type="line"/>
      <point x="408" y="164" type="line"/>
      <point x="408" y="43" type="line"/>
      <point x="275" y="-5" type="line"/>
      <point x="198" y="-5" type="line"/>
      <point x="65" y="22" type="line"/>
      <point x="81" y="75" type="line"/>
      <point x="238" y="34" type="line"/>
      <point x="356" y="72" type="line"/>
      <point x="356" y="131" type="line"/>
      <point x="60" y="245" type="line"/>
      <point x="60" y="293" type="line"/>
      <point x="126" y="409" type="line"/>
      <point x="70" y="431" type="line"/>
      <point x="70" y="552" type="line"/>
      <point x="203" y="600" type="line"/>
      <point x="280" y="600" type="line"/>
      <point x="413" y="573" type="line"/>
      <point x="397" y="520" type="line"/>
      <point x="240" y="561" type="line"/>
      <point x="122" y="523" type="line"/>
      <point x="122" y="464" type="line"/>
      <point x="418" y="350" type="line"/>
    </contour>
    <contour>
      <point x="366" y="315" type="line"/>
      <point x="172" y="391" type="line"/>
      <point x="112" y="280" type="line"/>
      <point x="306" y="204" type="line"/>
    </contour>
  </outline>
</glyph>
<glyph name="dieresis" format="1">
  <advance width="438"/>
  <unicode hex="00A8"/>
  <outline>
    <contour>
      <point x="324" y="454" type="line"/>
      <point x="322" y="418" type="line"/>
      <point x="247" y="418" type="line"/>
      <point x="245" y="454" type="line"/>
      <point x="247" y="490" type="line"/>
      <point x="322" y="490" type="line"/>
    </contour>
    <contour>
      <point x="193" y="454" type="line"/>
      <point x="191" y="418" type="line"/>
      <point x="116" y="418" type="line"/>
      <point x="114" y="454" type="line"/>
      <point x="116" y="490" type="line"/>
      <point x="191" y="490" type="line"/>
    </contour>
  </outline>
</glyph>
<glyph name="copyright" format="1">
  <advance width="705"/>
  <unicode hex="00A9"/>
  <outline>
    <contour>
      <point x="666" y="297" type="line"/>
      <point x="631" y="46" type="line"/>
      <point x="421" y="-5" type="line"/>
      <point x="284" y="-5" type="line"/>
      <point x="74" y="46" type="line"/>
      <point x="39" y="297" type="line"/>
      <point x="74" y="549" type="line"/>
      <point x="284" y="600" type="line"/>
      <point x="421" y="600" type="line"/>
      <point x="631" y="549" type="line"/>
    </contour>
    <contour>
      <point x="629" y="297" type="line"/>
      <point x="599" y="525" type="line"/>
      <point x="416" y="568" type="line"/>
      <point x="288" y="568" type="line"/>
      <point x="107" y="525" type="line"/>
      <point x="76" y="297" type="line"/>
      <point x="107" y="71" type="line"/>
      <point x="288" y="27" type="line"/>
      <point x="416" y="27" type="line"/>
      <point x="599" y="71" type="line"/>
    </contour>
    <contour>
      <point x="478" y="481" type="line"/>
      <point x="468" y="437" type="line"/>
      <point x="355" y="464" type="line"/>
      <point x="261" y="438" type="line"/>
      <point x="244" y="301" type="line"/>
      <point x="261" y="166" type="line"/>
      <point x="354" y="139" type="line"/>
      <point x="464" y="176" type="line"/>
      <point x="477" y="136" type="line"/>
      <point x="376" y="103" type="line"/>
      <point x="332" y="103" type="line"/>
      <point x="218" y="138" type="line"/>
      <point x="197" y="301" type="line"/>
      <point x="218" y="468" type="line"/>
      <point x="332" y="500" type="line"/>
      <point x="380" y="500" type="line"/>
    </contour>
  </outline>
</glyph>
<glyph name="ordfeminine" format="1">
  <advance width="378"/>
  <unicode hex="00AA"/>
  <outline>
    <contour>
      <point x="333" y="240" type="line"/>
      <point x="267" y="240" type="line"/>
      <point x="268" y="269" type="line"/>
      <point x="162" y="236" type="line"/>
      <point x="54" y="265" type="line"/>
      <point x="41" y="352" type="line"/>
      <point x="54" y="439" type="line"/>
      <point x="184" y="466" type="line"/>
      <point x="273" y="442" type="line"/>
      <point x="270" y="531" type="line"/>
      <point x="233" y="562" type="line"/>
      <point x="179" y="562" type="line"/>
      <point x="70" y="531" type="line"/>
      <point x="57" y="577" type="line"/>
      <point x="156" y="600" type="line"/>
      <point x="265" y="600" type="line"/>
      <point x="332" y="558" type="line"/>
      <point x="326" y="417" type="line"/>
    </contour>
    <contour>
      <point x="335" y="164" type="line"/>
      <point x="192" y="157" type="line"/>
      <point x="49" y="164" type="line"/>
      <point x="49" y="197" type="line"/>
      <point x="192" y="204" type="line"/>
      <point x="335" y="197" type="line"/>
    </contour>
    <contour>
      <point x="273" y="401" type="line"/>
      <point x="180" y="427" type="line"/>
      <point x="104" y="407" type="line"/>
      <point x="96" y="351" type="line"/>
      <point x="104" y="296" type="line"/>
      <point x="178" y="279" type="line"/>
      <point x="269" y="307" type="line"/>
    </contour>
  </outline>
</glyph>
<glyph name="guillemotleft" format="1">
  <advance width="436"/>
  <unicode hex="00AB"/>
  <outline>
    <contour>
      <point x="402" y="56" type="line"/>
      <point x="376" y="33" type="line"/>
      <point x="270" y="131" type="line"/>
      <point x="207" y="174" type="line"/>
      <point x="207" y="206" type="line"/>
      <point x="270" y="249" type="line"/>
      <point x="376" y="347" type="line"/>
      <point x="402" y="324" type="line"/>
      <point x="284" y="190" type="line"/>
    </contour>
    <contour>
      <point x="224" y="56" type="line"/>
      <point x="198" y="33" type="line"/>
      <point x="92" y="131" type="line"/>
      <point x="29" y="174" type="line"/>
      <point x="29" y="206" type="line"/>
      <point x="92" y="249" type="line"/>
      <point x="198" y="347" type="line"/>
      <point x="224" y="324" type="line"/>
      <point x="106" y="190" type="line"/>
    </contour>
  </outline>
</glyph>
<glyph name="acute" format="1">
  <advance width="438"/>
  <unicode hex="00B4"/>
  <outline>
    <contour>
      <point x="309" y="479" type="line"/>
      <point x="255" y="434" type="line"/>
      <point x="145" y="404" type="line"/>
      <point x="137" y="427" type="line"/>
      <point x="207" y="467" type="line"/>
      <point x="260" y="519" type="line"/>
    </contour>
  </outline>
</glyph>
<glyph name="paragraph" format="1">
  <advance width="493"/>
  <unicode hex="00B6"/>
  <outline>
    <contour>
      <point x="431" y="0" type="line"/>
      <point x="364" y="0" type="line"/>
      <point x="373" y="295" type="line"/>
      <point x="367" y="547" type="line"/>
      <point x="315" y="547" type="line"/>
      <point x="307" y="432" type="line"/>
      <point x="315" y="306" type="line"/>
      <point x="208" y="258" type="line"/>
      <point x="55" y="309" type="line"/>
      <point x="37" y="426" type="line"/>
      <point x="55" y="544" type="line"/>
      <point x="223" y="595" type="line"/>
      <point x="431" y="595" type="line"/>
      <point x="423" y="297" type="line"/>
    </contour>
  </outline>
</glyph>
<glyph name="periodcentered" format="1">
  <advance width="170"/>
  <unicode hex="00B7"/>
  <outline>
    <contour>
      <point x="122" y="227" type="line"/>
      <point x="120" y="188" type="line"/>
      <point x="50" y="188" type="line"/>
      <point x="48" y="227" type="line"/>
      <point x="50" y="266" type="line"/>
      <point x="120" y="266" type="line"/>
    </contour>
  </outline>
</glyph>
<glyph name="cedilla" format="1">
  <advance width="438"/>
  <unicode hex="00B8"/>
  <outline>
    <contour>
      <point x="272" y="-30" type="line"/>
      <point x="228" y="-70" type="line"/>
      <point x="156" y="-89" type="line"/>
      <point x="145" y="-67" type="line"/>
      <point x="190" y="-37" type="line"/>
      <point x="233" y="15" type="line"/>
    </contour>
  </outline>
</glyph>
<glyph name="ordmasculine" format="1">
  <advance width="398"/>
  <unicode hex="00BA"/>
  <outline>
    <contour>
      <point x="364" y="419" type="line"/>
      <point x="343" y="268" type="line"/>
      <point x="230" y="237" type="line"/>
      <point x="168" y="237" type="line"/>
      <point x="55" y="267" type="line"/>
      <point x="34" y="418" type="line"/>
      <point x="55" y="569" type="line"/>
      <point x="168" y="600" type="line"/>
      <point x="230" y="600" type="line"/>
      <point x="343" y="570" type="line"/>
    </contour>
    <contour>
      <point x="352" y="164" type="line"/>
      <point x="199" y="157" type="line"/>
      <point x="46" y="164" type="line"/>
      <point x="46" y="197" type="line"/>
      <point x="199" y="204" type="line"/>
      <point x="352" y="197" type="line"/>
    </contour>
    <contour>
      <point x="311" y="418" type="line"/>
      <point x="295" y="535" type="line"/>
      <point x="199" y="559" type="line"/>
      <point x="103" y="535" type="line"/>
      <point x="87" y="419" type="line"/>
      <point x="103" y="302" type="line"/>
      <point x="199" y="278" type="line"/>
      <point x="295" y="302" type="line"/>
    </contour>
  </outline>
</glyph>
<glyph name="guillemotright" format="1">
  <advance width="436"/>
  <unicode hex="00BB"/>
  <outline>
    <contour>
      <point x="407" y="174" type="line"/>
      <point x="344" y="131" type="line"/>
      <point x="238" y="33" type="line"/>
      <point x="212" y="56" type="line"/>
      <point x="330" y="190" type="line"/>
      <point x="212" y="324" type="line"/>
      <point x="238" y="347" type="line"/>
      <point x="344" y="249" type="line"/>
      <point x="407" y="206" type="line"/>
    </contour>
    <contour>
      <point x="229" y="174" type="line"/>
      <point x="166" y="131" type="line"/>
      <point x="60" y="33" type="line"/>
      <point x="34" y="56" type="line"/>
      <point x="152" y="190" type="line"/>
      <point x="34" y="324" type="line"/>
      <point x="60" y="347" type="line"/>
      <point x="166" y="249" type="line"/>
      <point x="229" y="206" type="line"/>
    </contour>
  </outline>
</glyph>
<glyph name="Aring" format="1">
  <advance width="571"/>
  <unicode hex="00C5"/>
  <outline>
    <contour>
      <point x="371" y="695" type="line"/>
      <point x="360" y="637" type="line"/>
      <point x="307" y="620" type="line"/>
      <point x="261" y="620" type="line"/>
      <point x="208" y="636" type="line"/>
      <point x="197" y="694" type="line"/>
      <point x="208" y="752" type="line"/>
      <point x="261" y="768" type="line"/>
      <point x="307" y="768" type="line"/>
      <point x="360" y="752" type="line"/>
    </contour>
    <contour>
      <point x="530" y="16" type="line"/>
      <point x="472" y="-11" type="line"/>
      <point x="425" y="134" type="line"/>
      <point x="139" y="134" type="line"/>
      <point x="93" y="-11" type="line"/>
      <point x="40" y="13" type="line"/>
      <point x="156" y="321" type="line"/>
      <point x="250" y="597" type="line"/>
      <point x="316" y="597" type="line"/>
      <point x="409" y="328" type="line"/>
    </contour>
    <contour>
      <point x="331" y="694" type="line"/>
      <point x="323" y="729" type="line"/>
      <point x="284" y="739" type="line"/>
      <point x="245" y="729" type="line"/>
      <point x="237" y="695" type="line"/>
      <point x="245" y="659" type="line"/>
      <point x="284" y="649" type="line"/>
      <point x="323" y="659" type="line"/>
    </contour>
    <contour>
      <point x="409" y="182" type="line"/>
      <point x="280" y="539" type="line"/>
      <point x="156" y="182" type="line"/>
    </contour>
  </outline>
</glyph>
<glyph name="AE" format="1">
  <advance width="752"/>
  <unicode hex="00C6"/>
  <outline>
    <contour>
      <point x="715" y="0" type="line"/>
      <point x="390" y="0" type="line"/>
      <point x="394" y="134" type="line"/>
      <point x="166" y="134" type="line"/>
      <point x="93" y="-11" type="line"/>
      <point x="40" y="13" type="line"/>
      <point x="216" y="321" type="line"/>
      <point x="354" y="595" type="line"/>
      <point x="711" y="595" type="line"/>
      <point x="701" y="544" type="line"/>
      <point x="453" y="557" type="line"/>
      <point x="447" y="322" type="line"/>
      <point x="630" y="327" type="line"/>
      <point x="630" y="278" type="line"/>
      <point x="447" y="284" type="line"/>
      <point x="453" y="38" type="line"/>
      <point x="704" y="51" type="line"/>
    </contour>
    <contour>
      <point x="398" y="297" type="line"/>
      <point x="391" y="554" type="line"/>
      <point x="210" y="218" type="line"/>
      <point x="191" y="182" type="line"/>
      <point x="395" y="182" type="line"/>
    </contour>
  </outline>
</glyph>
<glyph name="Ccedilla" format="1">
  <advance width="508"/>
  <unicode hex="00C7"/>
  <outline>
    <contour>
      <point x="470" y="570" type="line"/>
      <point x="454" y="517" type="line"/>
      <point x="284" y="559" type="line"/>
      <point x="130" y="516" type="line"/>
      <point x="103" y="297" type="line"/>
      <point x="130" y="79" type="line"/>
      <point x="283" y="35" type="line"/>
      <point x="451" y="89" type="line"/>
      <point x="466" y="42" type="line"/>
      <point x="317" y="-5" type="line"/>
      <point x="301" y="-5" type="line"/>
      <point x="323" y="-30" type="line"/>
      <point x="279" y="-70" type="line"/>
      <point x="207" y="-89" type="line"/>
      <point x="196" y="-67" type="line"/>
      <point x="241" y="-37" type="line"/>
      <point x="267" y="-5" type="line"/>
      <point x="249" y="-5" type="line"/>
      <point x="76" y="46" type="line"/>
      <point x="45" y="297" type="line"/>
      <point x="76" y="549" type="line"/>
      <point x="249" y="600" type="line"/>
      <point x="323" y="600" type="line"/>
    </contour>
  </outline>
</glyph>
<glyph name="Eth" format="1">
  <advance width="570"/>
  <unicode hex="00D0"/>
  <outline>
    <contour>
      <point x="525" y="297" type="line"/>
      <point x="494" y="51" type="line"/>
      <point x="325" y="0" type="line"/>
      <point x="75" y="0" type="line"/>
      <point x="82" y="272" type="line"/>
      <point x="25" y="276" type="line"/>
      <point x="25" y="318" type="line"/>
      <point x="82" y="321" type="line"/>
      <point x="75" y="595" type="line"/>
      <point x="325" y="595" type="line"/>
      <point x="494" y="544" type="line"/>
    </contour>
    <contour>
      <point x="467" y="297" type="line"/>
      <point x="440" y="508" type="line"/>
      <point x="305" y="547" type="line"/>
      <point x="139" y="547" type="line"/>
      <point x="134" y="322" type="line"/>
      <point x="269" y="318" type="line"/>
      <point x="269" y="276" type="line"/>
      <point x="134" y="272" type="line"/>
      <point x="139" y="48" type="line"/>
      <point x="305" y="48" type="line"/>
      <point x="440" y="87" type="line"/>
    </contour>
  </outline>
</glyph>
<glyph name="Oslash" format="1">
  <advance width="586"/>
  <unicode hex="00D8"/>
  <outline>
    <contour>
      <point x="541" y="297" type="line"/>
      <point x="509" y="46" type="line"/>
      <point x="332" y="-5" type="line"/>
      <point x="254" y="-5" type="line"/>
      <point x="188" y="14" type="line"/>
      <point x="141" y="-85" type="line"/>
      <point x="108" y="-71" type="line"/>
      <point x="148" y="25" type="line"/>
      <point x="76" y="46" type="line"/>
      <point x="45" y="297" type="line"/>
      <point x="76" y="549" type="line"/>
      <point x="254" y="600" type="line"/>
      <point x="332" y="600" type="line"/>
      <point x="397" y="581" type="line"/>
      <point x="444" y="680" type="line"/>
      <point x="477" y="666" type="line"/>
      <point x="436" y="570" type="line"/>
      <point x="509" y="549" type="line"/>
    </contour>
    <contour>
      <point x="376" y="537" type="line"/>
      <point x="293" y="560" type="line"/>
      <point x="130" y="516" type="line"/>
      <point x="103" y="297" type="line"/>
      <point x="130" y="79" type="line"/>
      <point x="167" y="69" type="line"/>
      <point x="267" y="307" type="line"/>
    </contour>
    <contour>
      <point x="482" y="297" type="line"/>
      <point x="456" y="516" type="line"/>
      <point x="418" y="526" type="line"/>
      <point x="319" y="289" type="line"/>
      <point x="209" y="58" type="line"/>
      <point x="292" y="35" type="line"/>
      <point x="456" y="79" type="line"/>
    </contour>
  </outline>
</glyph>
<glyph name="Thorn" format="1">
  <advance width="493"/>
  <unicode hex="00DE"/>
  <outline>
    <contour>
      <point x="456" y="299" type="line"/>
      <point x="438" y="167" type="line"/>
      <point x="270" y="116" type="line"/>
      <point x="125" y="116" type="line"/>
      <point x="128" y="0" type="line"/>
      <point x="62" y="0" type="line"/>
      <point x="70" y="297" type="line"/>
      <point x="62" y="595" type="line"/>
      <point x="128" y="595" type="line"/>
      <point x="125" y="483" type="line"/>
      <point x="270" y="483" type="line"/>
      <point x="438" y="432" type="line"/>
    </contour>
    <contour>
      <point x="398" y="299" type="line"/>
      <point x="385" y="396" type="line"/>
      <point x="249" y="435" type="line"/>
      <point x="124" y="435" type="line"/>
      <point x="120" y="297" type="line"/>
      <point x="124" y="164" type="line"/>
      <point x="249" y="164" type="line"/>
      <point x="385" y="203" type="line"/>
    </contour>
  </outline>
</glyph>
<glyph name="germandbls" format="1">
  <advance width="495"/>
  <unicode hex="00DF"/>
  <outline>
    <contour>
      <point x="465" y="26" type="line"/>
      <point x="381" y="-5" type="line"/>
      <point x="306" y="-5" type="line"/>
      <point x="207" y="22" type="line"/>
      <point x="225" y="70" type="line"/>
      <point x="343" y="32" type="line"/>
      <point x="413" y="54" type="line"/>
      <point x="413" y="127" type="line"/>
      <point x="218" y="267" type="line"/>
      <point x="212" y="297" type="line"/>
      <point x="286" y="601" type="line"/>
      <point x="272" y="696" type="line"/>
      <point x="199" y="710" type="line"/>
      <point x="125" y="696" type="line"/>
      <point x="119" y="376" type="line"/>
      <point x="127" y="0" type="line"/>
      <point x="61" y="0" type="line"/>
      <point x="68" y="333" type="line"/>
      <point x="36" y="339" type="line"/>
      <point x="36" y="372" type="line"/>
      <point x="69" y="378" type="line"/>
      <point x="62" y="730" type="line"/>
      <point x="157" y="750" type="line"/>
      <point x="239" y="750" type="line"/>
      <point x="327" y="730" type="line"/>
      <point x="347" y="610" type="line"/>
      <point x="268" y="301" type="line"/>
      <point x="465" y="154" type="line"/>
    </contour>
  </outline>
</glyph>
<glyph name="ae" format="1">
  <advance width="599"/>
  <unicode hex="00E6"/>
  <outline>
    <contour>
      <point x="558" y="206" type="line"/>
      <point x="337" y="150" type="line"/>
      <point x="346" y="51" type="line"/>
      <point x="426" y="33" type="line"/>
      <point x="545" y="61" type="line"/>
      <point x="555" y="15" type="line"/>
      <point x="464" y="-5" type="line"/>
      <point x="389" y="-5" type="line"/>
      <point x="291" y="20" type="line"/>
      <point x="290" y="35" type="line"/>
      <point x="166" y="-5" type="line"/>
      <point x="54" y="25" type="line"/>
      <point x="39" y="116" type="line"/>
      <point x="54" y="207" type="line"/>
      <point x="189" y="236" type="line"/>
      <point x="282" y="210" type="line"/>
      <point x="279" y="313" type="line"/>
      <point x="239" y="335" type="line"/>
      <point x="184" y="335" type="line"/>
      <point x="70" y="303" type="line"/>
      <point x="57" y="351" type="line"/>
      <point x="160" y="375" type="line"/>
      <point x="263" y="375" type="line"/>
      <point x="307" y="355" type="line"/>
      <point x="389" y="380" type="line"/>
      <point x="464" y="380" type="line"/>
      <point x="545" y="356" type="line"/>
    </contour>
    <contour>
      <point x="498" y="232" type="line"/>
      <point x="491" y="328" type="line"/>
      <point x="422" y="342" type="line"/>
      <point x="337" y="322" type="line"/>
      <point x="337" y="191" type="line"/>
    </contour>
    <contour>
      <point x="286" y="73" type="line"/>
      <point x="278" y="168" type="line"/>
      <point x="185" y="193" type="line"/>
      <point x="106" y="173" type="line"/>
      <point x="98" y="115" type="line"/>
      <point x="106" y="58" type="line"/>
      <point x="183" y="42" type="line"/>
    </contour>
  </outline>
</glyph>
<glyph name="ccedilla" format="1">
  <advance width="357"/>
  <unicode hex="00E7"/>
  <outline>
    <contour>
      <point x="321" y="16" type="line"/>
      <point x="237" y="-5" type="line"/>
      <point x="220" y="-5" type="line"/>
      <point x="242" y="-30" type="line"/>
      <point x="198" y="-70" type="line"/>
      <point x="126" y="-89" type="line"/>
      <point x="115" y="-67" type="line"/>
      <point x="160" y="-37" type="line"/>
      <point x="186" y="-5" type="line"/>
      <point x="162" y="-5" type="line"/>
      <point x="64" y="20" type="line"/>
      <point x="49" y="188" type="line"/>
      <point x="64" y="355" type="line"/>
      <point x="162" y="380" type="line"/>
      <point x="237" y="380" type="line"/>
      <point x="319" y="369" type="line"/>
      <point x="305" y="310" type="line"/>
      <point x="200" y="342" type="line"/>
      <point x="119" y="324" type="line"/>
      <point x="107" y="188" type="line"/>
      <point x="119" y="51" type="line"/>
      <point x="199" y="33" type="line"/>
      <point x="311" y="62" type="line"/>
    </contour>
  </outline>
</glyph>
<glyph name="eth" format="1">
  <advance width="412"/>
  <unicode hex="00F0"/>
  <outline>
    <contour>
      <point x="448" y="522" type="line"/>
      <point x="356" y="518" type="line"/>
      <point x="366" y="372" type="line"/>
      <point x="353" y="20" type="line"/>
      <point x="246" y="-5" type="line"/>
      <point x="171" y="-5" type="line"/>
      <point x="64" y="20" type="line"/>
      <point x="49" y="188" type="line"/>
      <point x="64" y="355" type="line"/>
      <point x="201" y="380" type="line"/>
      <point x="310" y="363" type="line"/>
      <point x="310" y="372" type="line"/>
      <point x="300" y="518" type="line"/>
      <point x="193" y="522" type="line"/>
      <point x="193" y="558" type="line"/>
      <point x="297" y="561" type="line"/>
      <point x="288" y="694" type="line"/>
      <point x="228" y="712" type="line"/>
      <point x="125" y="688" type="line"/>
      <point x="116" y="729" type="line"/>
      <point x="190" y="750" type="line"/>
      <point x="265" y="750" type="line"/>
      <point x="343" y="725" type="line"/>
      <point x="354" y="562" type="line"/>
      <point x="448" y="558" type="line"/>
    </contour>
    <contour>
      <point x="308" y="318" type="line"/>
      <point x="206" y="339" type="line"/>
      <point x="119" y="324" type="line"/>
      <point x="107" y="188" type="line"/>
      <point x="119" y="51" type="line"/>
      <point x="208" y="33" type="line"/>
      <point x="298" y="51" type="line"/>
    </contour>
  </outline>
</glyph>
<glyph name="oslash" format="1">
  <advance width="417"/>
  <unicode hex="00F8"/>
  <outline>
    <contour>
      <point x="368" y="188" type="line"/>
      <point x="353" y="20" type="line"/>
      <point x="246" y="-5" type="line"/>
      <point x="171" y="-5" type="line"/>
      <point x="136" y="3" type="line"/>
      <point x="90" y="-85" type="line"/>
      <point x="63" y="-71" type="line"/>
      <point x="101" y="11" type="line"/>
      <point x="64" y="20" type="line"/>
      <point x="49" y="188" type="line"/>
      <point x="64" y="355" type="line"/>
      <point x="171" y="380" type="line"/>
      <point x="246" y="380" type="line"/>
      <point x="280" y="372" type="line"/>
      <point x="327" y="461" type="line"/>
      <point x="354" y="447" type="line"/>
      <point x="315" y="364" type="line"/>
      <point x="353" y="355" type="line"/>
    </contour>
    <contour>
      <point x="259" y="332" type="line"/>
      <point x="209" y="342" type="line"/>
      <point x="119" y="324" type="line"/>
      <point x="107" y="188" type="line"/>
      <point x="119" y="51" type="line"/>
      <point x="120" y="51" type="line"/>
      <point x="187" y="197" type="line"/>
    </contour>
    <contour>
      <point x="310" y="188" type="line"/>
      <point x="298" y="324" type="line"/>
      <point x="297" y="324" type="line"/>
      <point x="229" y="179" type="line"/>
      <point x="157" y="43" type="line"/>
      <point x="208" y="33" type="line"/>
      <point x="298" y="51" type="line"/>
    </contour>
  </outline>
</glyph>
<glyph name="thorn" format="1">
  <advance width="410"/>
  <unicode hex="00FE"/>
  <outline>
    <contour>
      <point x="361" y="188" type="line"/>
      <point x="346" y="11" type="line"/>
      <point x="246" y="-5" type="line"/>
      <point x="120" y="31" type="line"/>
      <point x="123" y="-140" type="line"/>
      <point x="57" y="-140" type="line"/>
      <point x="65" y="305" type="line"/>
      <point x="57" y="750" type="line"/>
      <point x="123" y="750" type="line"/>
      <point x="116" y="342" type="line"/>
      <point x="247" y="380" type="line"/>
      <point x="346" y="364" type="line"/>
    </contour>
    <contour>
      <point x="303" y="188" type="line"/>
      <point x="291" y="320" type="line"/>
      <point x="230" y="330" type="line"/>
      <point x="115" y="299" type="line"/>
      <point x="119" y="74" type="line"/>
      <point x="230" y="45" type="line"/>
      <point x="291" y="55" type="line"/>
    </contour>
  </outline>
</glyph>
<glyph name="dotlessi" format="1">
  <advance width="199"/>
  <unicode hex="0131"/>
  <outline>
    <contour>
      <point x="134" y="0" type="line"/>
      <point x="65" y="0" type="line"/>
      <point x="73" y="187" type="line"/>
      <point x="65" y="375" type="line"/>
      <point x="134" y="375" type="line"/>
      <point x="126" y="187" type="line"/>
    </contour>
  </outline>
</glyph>
<glyph name="Lslash" format="1">
  <advance width="422"/>
  <unicode hex="0141"/>
  <outline>
    <contour>
      <point x="396" y="0" type="line"/>
      <point x="75" y="0" type="line"/>
      <point x="82" y="254" type="line"/>
      <point x="20" y="233" type="line"/>
      <point x="6" y="268" type="line"/>
      <point x="83" y="306" type="line"/>
      <point x="75" y="595" type="line"/>
      <point x="141" y="595" type="line"/>
      <point x="134" y="327" type="line"/>
      <point x="265" y="372" type="line"/>
      <point x="279" y="337" type="line"/>
      <point x="134" y="273" type="line"/>
      <point x="139" y="38" type="line"/>
      <point x="386" y="51" type="line"/>
    </contour>
  </outline>
</glyph>
<glyph name="lslash" format="1">
  <advance width="222"/>
  <unicode hex="0142"/>
  <outline>
    <contour>
      <point x="215" y="313" type="line"/>
      <point x="138" y="275" type="line"/>
      <point x="144" y="0" type="line"/>
      <point x="78" y="0" type="line"/>
      <point x="83" y="254" type="line"/>
      <point x="21" y="233" type="line"/>
      <point x="7" y="268" type="line"/>
      <point x="84" y="306" type="line"/>
      <point x="86" y="375" type="line"/>
      <point x="78" y="750" type="line"/>
      <point x="144" y="750" type="line"/>
      <point x="136" y="375" type="line"/>
      <point x="137" y="326" type="line"/>
      <point x="201" y="348" type="line"/>
    </contour>
  </outline>
</glyph>
<glyph name="OE" format="1">
  <advance width="761"/>
  <unicode hex="0152"/>
  <outline>
    <contour>
      <point x="724" y="0" type="line"/>
      <point x="245" y="0" type="line"/>
      <point x="76" y="51" type="line"/>
      <point x="45" y="297" type="line"/>
      <point x="76" y="544" type="line"/>
      <point x="245" y="595" type="line"/>
      <point x="720" y="595" type="line"/>
      <point x="710" y="544" type="line"/>
      <point x="462" y="557" type="line"/>
      <point x="456" y="322" type="line"/>
      <point x="639" y="327" type="line"/>
      <point x="639" y="278" type="line"/>
      <point x="456" y="284" type="line"/>
      <point x="462" y="38" type="line"/>
      <point x="713" y="51" type="line"/>
    </contour>
    <contour>
      <point x="407" y="297" type="line"/>
      <point x="401" y="547" type="line"/>
      <point x="265" y="547" type="line"/>
      <point x="130" y="508" type="line"/>
      <point x="103" y="297" type="line"/>
      <point x="130" y="87" type="line"/>
      <point x="265" y="48" type="line"/>
      <point x="401" y="48" type="line"/>
    </contour>
  </outline>
</glyph>
<glyph name="oe" format="1">
  <advance width="619"/>
  <unicode hex="0153"/>
  <outline>
    <contour>
      <point x="578" y="206" type="line"/>
      <point x="357" y="150" type="line"/>
      <point x="361" y="51" type="line"/>
      <point x="446" y="33" type="line"/>
      <point x="565" y="61" type="line"/>
      <point x="575" y="15" type="line"/>
      <point x="484" y="-5" type="line"/>
      <point x="409" y="-5" type="line"/>
      <point x="328" y="16" type="line"/>
      <point x="243" y="-5" type="line"/>
      <point x="168" y="-5" type="line"/>
      <point x="64" y="20" type="line"/>
      <point x="49" y="188" type="line"/>
      <point x="64" y="355" type="line"/>
      <point x="168" y="380" type="line"/>
      <point x="243" y="380" type="line"/>
      <point x="328" y="359" type="line"/>
      <point x="409" y="380" type="line"/>
      <point x="484" y="380" type="line"/>
      <point x="565" y="356" type="line"/>
    </contour>
    <contour>
      <point x="518" y="232" type="line"/>
      <point x="511" y="328" type="line"/>
      <point x="442" y="342" type="line"/>
      <point x="361" y="324" type="line"/>
      <point x="354" y="190" type="line"/>
    </contour>
    <contour>
      <point x="304" y="188" type="line"/>
      <point x="297" y="324" type="line"/>
      <point x="206" y="342" type="line"/>
      <point x="119" y="324" type="line"/>
      <point x="107" y="188" type="line"/>
      <point x="119" y="51" type="line"/>
      <point x="205" y="33" type="line"/>
      <point x="297" y="51" type="line"/>
    </contour>
  </outline>
</glyph>
<glyph name="florin" format="1">
  <advance width="270"/>
  <unicode hex="0192"/>
  <outline>
    <contour>
      <point x="248" y="584" type="line"/>
      <point x="238" y="533" type="line"/>
      <point x="123" y="556" type="line"/>
      <point x="118" y="284" type="line"/>
      <point x="211" y="280" type="line"/>
      <point x="211" y="243" type="line"/>
      <point x="118" y="239" type="line"/>
      <point x="124" y="-140" type="line"/>
      <point x="62" y="-140" type="line"/>
      <point x="68" y="240" type="line"/>
      <point x="36" y="243" type="line"/>
      <point x="36" y="280" type="line"/>
      <point x="68" y="283" type="line"/>
      <point x="62" y="580" type="line"/>
      <point x="166" y="600" type="line"/>
    </contour>
  </outline>
</glyph>
<glyph name="circumflex" format="1">
  <advance width="438"/>
  <unicode hex="02C6"/>
  <outline>
    <contour>
      <point x="333" y="428" type="line"/>
      <point x="317" y="404" type="line"/>
      <point x="219" y="456" type="line"/>
      <point x="121" y="404" type="line"/>
      <point x="105" y="428" type="line"/>
      <point x="158" y="468" type="line"/>
      <point x="203" y="518" type="line"/>
      <point x="235" y="518" type="line"/>
      <point x="280" y="468" type="line"/>
    </contour>
  </outline>
</glyph>
<glyph name="caron" format="1">
  <advance width="438"/>
  <unicode hex="02C7"/>
  <outline>
    <contour>
      <point x="333" y="501" type="line"/>
      <point x="280" y="461" type="line"/>
      <point x="235" y="411" type="line"/>
      <point x="203" y="411" type="line"/>
      <point x="158" y="461" type="line"/>
      <point x="105" y="501" type="line"/>
      <point x="121" y="525" type="line"/>
      <point x="219" y="473" type="line"/>
      <point x="317" y="525" type="line"/>
    </contour>
  </outline>
</glyph>
<glyph name="breve" format="1">
  <advance width="438"/>
  <unicode hex="02D8"/>
  <outline>
    <contour>
      <point x="336" y="501" type="line"/>
      <point x="300" y="450" type="line"/>
      <point x="235" y="411" type="line"/>
      <point x="203" y="411" type="line"/>
      <point x="138" y="450" type="line"/>
      <point x="102" y="501" type="line"/>
      <point x="121" y="517" type="line"/>
      <point x="209" y="457" type="line"/>
      <point x="229" y="457" type="line"/>
      <point x="317" y="517" type="line"/>
    </contour>
  </outline>
</glyph>
<glyph name="dotaccent" format="1">
  <advance width="438"/>
  <unicode hex="02D9"/>
  <outline>
    <contour>
      <point x="259" y="454" type="line"/>
      <point x="257" y="418" type="line"/>
      <point x="181" y="418" type="line"/>
      <point x="179" y="454" type="line"/>
      <point x="181" y="490" type="line"/>
      <point x="257" y="490" type="line"/>
    </contour>
  </outline>
</glyph>
<glyph name="ring" format="1">
  <advance width="438"/>
  <unicode hex="02DA"/>
  <outline>
    <contour>
      <point x="306" y="483" type="line"/>
      <point x="295" y="425" type="line"/>
      <point x="242" y="408" type="line"/>
      <point x="196" y="408" type="line"/>
      <point x="143" y="424" type="line"/>
      <point x="132" y="482" type="line"/>
      <point x="143" y="540" type="line"/>
      <point x="196" y="556" type="line"/>
      <point x="242" y="556" type="line"/>
      <point x="295" y="540" type="line"/>
    </contour>
    <contour>
      <point x="266" y="482" type="line"/>
      <point x="258" y="517" type="line"/>
      <point x="219" y="527" type="line"/>
      <point x="180" y="517" type="line"/>
      <point x="172" y="483" type="line"/>
      <point x="180" y="447" type="line"/>
      <point x="219" y="437" type="line"/>
      <point x="258" y="447" type="line"/>
    </contour>
  </outline>
</glyph>
<glyph name="ogonek" format="1">
  <advance width="438"/>
  <unicode hex="02DB"/>
  <outline>
    <contour>
      <point x="293" y="-67" type="line"/>
      <point x="282" y="-89" type="line"/>
      <point x="210" y="-70" type="line"/>
      <point x="166" y="-30" type="line"/>
      <point x="205" y="15" type="line"/>
      <point x="248" y="-37" type="line"/>
    </contour>
  </outline>
</glyph>
<glyph name="tilde" format="1">
  <advance width="438"/>
  <unicode hex="02DC"/>
  <outline>
    <contour>
      <point x="351" y="497" type="line"/>
      <point x="302" y="455" type="line"/>
      <point x="265" y="411" type="line"/>
      <point x="235" y="411" type="line"/>
      <point x="177" y="460" type="line"/>
      <point x="106" y="408" type="line"/>
      <point x="87" y="429" type="line"/>
      <point x="136" y="471" type="line"/>
      <point x="173" y="515" type="line"/>
      <point x="203" y="515" type="line"/>
      <point x="261" y="466" type="line"/>
      <point x="332" y="518" type="line"/>
    </contour>
  </outline>
</glyph>
<glyph name="hungarumlaut" format="1">
  <advance width="438"/>
  <unicode hex="02DD"/>
  <outline>
    <contour>
      <point x="357" y="503" type="line"/>
      <point x="326" y="460" type="line"/>
      <point x="227" y="404" type="line"/>
      <point x="213" y="424" type="line"/>
      <point x="271" y="480" type="line"/>
      <point x="300" y="530" type="line"/>
    </contour>
    <contour>
      <point x="226" y="503" type="line"/>
      <point x="195" y="460" type="line"/>
      <point x="96" y="404" type="line"/>
      <point x="82" y="424" type="line"/>
      <point x="140" y="480" type="line"/>
      <point x="169" y="530" type="line"/>
    </contour>
  </outline>
</glyph>
<glyph name="endash" format="1">
  <advance width="438"/>
  <unicode hex="2013"/>
  <outline>
    <contour>
      <point x="401" y="206" type="line"/>
      <point x="219" y="199" type="line"/>
      <point x="37" y="206" type="line"/>
      <point x="37" y="248" type="line"/>
      <point x="219" y="255" type="line"/>
      <point x="401" y="248" type="line"/>
    </contour>
  </outline>
</glyph>
<glyph name="emdash" format="1">
  <advance width="598"/>
  <unicode hex="2014"/>
  <outline>
    <contour>
      <point x="561" y="206" type="line"/>
      <point x="299" y="198" type="line"/>
      <point x="37" y="206" type="line"/>
      <point x="37" y="248" type="line"/>
      <point x="299" y="256" type="line"/>
      <point x="561" y="248" type="line"/>
    </contour>
  </outline>
</glyph>
<glyph name="quoteleft" format="1">
  <advance width="170"/>
  <unicode hex="2018"/>
  <unicode hex="02BB"/>
  <outline>
    <contour>
      <point x="125" y="590" type="line"/>
      <point x="112" y="516" type="line"/>
      <point x="119" y="438" type="line"/>
      <point x="48" y="438" type="line"/>
      <point x="46" y="502" type="line"/>
      <point x="99" y="601" type="line"/>
    </contour>
  </outline>
</glyph>
<glyph name="quoteright" format="1">
  <advance width="170"/>
  <unicode hex="2019"/>
  <unicode hex="02BC"/>
  <outline>
    <contour>
      <point x="124" y="531" type="line"/>
      <point x="71" y="432" type="line"/>
      <point x="45" y="443" type="line"/>
      <point x="58" y="517" type="line"/>
      <point x="51" y="595" type="line"/>
      <point x="122" y="595" type="line"/>
    </contour>
  </outline>
</glyph>
<glyph name="quotesinglbase" format="1">
  <advance width="170"/>
  <unicode hex="201A"/>
  <outline>
    <contour>
      <point x="124" y="14" type="line"/>
      <point x="71" y="-85" type="line"/>
      <point x="45" y="-74" type="line"/>
      <point x="58" y="0" type="line"/>
      <point x="51" y="78" type="line"/>
      <point x="122" y="78" type="line"/>
    </contour>
  </outline>
</glyph>
<glyph name="quotedblleft" format="1">
  <advance width="310"/>
  <unicode hex="201C"/>
  <outline>
    <contour>
      <point x="265" y="590" type="line"/>
      <point x="252" y="516" type="line"/>
      <point x="259" y="438" type="line"/>
      <point x="188" y="438" type="line"/>
      <point x="186" y="502" type="line"/>
      <point x="239" y="601" type="line"/>
    </contour>
    <contour>
      <point x="125" y="590" type="line"/>
      <point x="112" y="516" type="line"/>
      <point x="119" y="438" type="line"/>
      <point x="48" y="438" type="line"/>
      <point x="46" y="502" type="line"/>
      <point x="99" y="601" type="line"/>
    </contour>
  </outline>
</glyph>
<glyph name="quotedblright" format="1">
  <advance width="310"/>
  <unicode hex="201D"/>
  <outline>
    <contour>
      <point x="264" y="531" type="line"/>
      <point x="211" y="432" type="line"/>
      <point x="185" y="443" type="line"/>
      <point x="198" y="517" type="line"/>
      <point x="191" y="595" type="line"/>
      <point x="262" y="595" type="line"/>
    </contour>
    <contour>
      <point x="124" y="531" type="line"/>
      <point x="71" y="432" type="line"/>
      <point x="45" y="443" type="line"/>
      <point x="58" y="517" type="line"/>
      <point x="51" y="595" type="line"/>
      <point x="122" y="595" type="line"/>
    </contour>
  </outline>
</glyph>
<glyph name="quotedblbase" format="1">
  <advance width="310"/>
  <unicode hex="201E"/>
  <outline>
    <contour>
      <point x="264" y="14" type="line"/>
      <point x="211" y="-85" type="line"/>
      <point x="185" y="-74" type="line"/>
      <point x="198" y="0" type="line"/>
      <point x="191" y="78" type="line"/>
      <point x="262" y="78" type="line"/>
    </contour>
    <contour>
      <point x="124" y="14" type="line"/>
      <point x="71" y="-85" type="line"/>
      <point x="45" y="-74" type="line"/>
      <point x="58" y="0" type="line"/>
      <point x="51" y="78" type="line"/>
      <point x="122" y="78" type="line"/>
    </contour>
  </outline>
</glyph>
<glyph name="dagger" format="1">
  <advance width="431"/>
  <unicode hex="2020"/>
  <outline>
    <contour>
      <point x="405" y="380" type="line"/>
      <point x="239" y="384" type="line"/>
      <point x="245" y="0" type="line"/>
      <point x="186" y="0" type="line"/>
      <point x="192" y="384" type="line"/>
      <point x="26" y="380" type="line"/>
      <point x="26" y="427" type="line"/>
      <point x="191" y="423" type="line"/>
      <point x="186" y="595" type="line"/>
      <point x="245" y="595" type="line"/>
      <point x="240" y="423" type="line"/>
      <point x="405" y="427" type="line"/>
    </contour>
  </outline>
</glyph>
<glyph name="daggerdbl" format="1">
  <advance width="431"/>
  <unicode hex="2021"/>
  <outline>
    <contour>
      <point x="405" y="169" type="line"/>
      <point x="241" y="173" type="line"/>
      <point x="245" y="0" type="line"/>
      <point x="186" y="0" type="line"/>
      <point x="190" y="173" type="line"/>
      <point x="26" y="169" type="line"/>
      <point x="26" y="216" type="line"/>
      <point x="190" y="211" type="line"/>
      <point x="192" y="297" type="line"/>
      <point x="190" y="384" type="line"/>
      <point x="26" y="380" type="line"/>
      <point x="26" y="427" type="line"/>
      <point x="189" y="423" type="line"/>
      <point x="186" y="595" type="line"/>
      <point x="245" y="595" type="line"/>
      <point x="241" y="423" type="line"/>
      <point x="405" y="427" type="line"/>
      <point x="405" y="380" type="line"/>
      <point x="241" y="384" type="line"/>
      <point x="239" y="297" type="line"/>
      <point x="241" y="212" type="line"/>
      <point x="405" y="216" type="line"/>
    </contour>
  </outline>
</glyph>
<glyph name="ellipsis" format="1">
  <advance width="510"/>
  <unicode hex="2026"/>
  <outline>
    <contour>
      <point x="462" y="39" type="line"/>
      <point x="460" y="0" type="line"/>
      <point x="390" y="0" type="line"/>
      <point x="388" y="39" type="line"/>
      <point x="390" y="78" type="line"/>
      <point x="460" y="78" type="line"/>
    </contour>
    <contour>
      <point x="292" y="39" type="line"/>
      <point x="290" y="0" type="line"/>
      <point x="220" y="0" type="line"/>
      <point x="218" y="39" type="line"/>
      <point x="220" y="78" type="line"/>
      <point x="290" y="78" type="line"/>
    </contour>
    <contour>
      <point x="122" y="39" type="line"/>
      <point x="120" y="0" type="line"/>
      <point x="50" y="0" type="line"/>
      <point x="48" y="39" type="line"/>
      <point x="50" y="78" type="line"/>
      <point x="120" y="78" type="line"/>
    </contour>
  </outline>
</glyph>
<glyph name="perthousand" format="1">
  <advance width="1284"/>
  <unicode hex="2030"/>
  <outline>
    <contour>
      <point x="364" y="419" type="line"/>
      <point x="343" y="268" type="line"/>
      <point x="230" y="237" type="line"/>
      <point x="168" y="237" type="line"/>
      <point x="55" y="267" type="line"/>
      <point x="34" y="418" type="line"/>
      <point x="55" y="569" type="line"/>
      <point x="168" y="600" type="line"/>
      <point x="230" y="600" type="line"/>
      <point x="343" y="570" type="line"/>
    </contour>
    <contour>
      <point x="607" y="588" type="line"/>
      <point x="435" y="206" type="line"/>
      <point x="324" y="-7" type="line"/>
      <point x="288" y="7" type="line"/>
      <point x="460" y="389" type="line"/>
      <point x="571" y="602" type="line"/>
    </contour>
    <contour>
      <point x="1250" y="177" type="line"/>
      <point x="1229" y="26" type="line"/>
      <point x="1116" y="-5" type="line"/>
      <point x="1054" y="-5" type="line"/>
      <point x="941" y="25" type="line"/>
      <point x="920" y="176" type="line"/>
      <point x="941" y="327" type="line"/>
      <point x="1054" y="358" type="line"/>
      <point x="1116" y="358" type="line"/>
      <point x="1229" y="328" type="line"/>
    </contour>
    <contour>
      <point x="861" y="177" type="line"/>
      <point x="840" y="26" type="line"/>
      <point x="727" y="-5" type="line"/>
      <point x="665" y="-5" type="line"/>
      <point x="552" y="25" type="line"/>
      <point x="531" y="176" type="line"/>
      <point x="552" y="327" type="line"/>
      <point x="665" y="358" type="line"/>
      <point x="727" y="358" type="line"/>
      <point x="840" y="328" type="line"/>
    </contour>
    <contour>
      <point x="312" y="418" type="line"/>
      <point x="296" y="536" type="line"/>
      <point x="199" y="560" type="line"/>
      <point x="102" y="536" type="line"/>
      <point x="86" y="419" type="line"/>
      <point x="102" y="301" type="line"/>
      <point x="199" y="277" type="line"/>
      <point x="296" y="301" type="line"/>
    </contour>
    <contour>
      <point x="1198" y="176" type="line"/>
      <point x="1182" y="294" type="line"/>
      <point x="1085" y="318" type="line"/>
      <point x="988" y="294" type="line"/>
      <point x="972" y="177" type="line"/>
      <point x="988" y="59" type="line"/>
      <point x="1085" y="35" type="line"/>
      <point x="1182" y="59" type="line"/>
    </contour>
    <contour>
      <point x="809" y="176" type="line"/>
      <point x="793" y="294" type="line"/>
      <point x="696" y="318" type="line"/>
      <point x="599" y="294" type="line"/>
      <point x="583" y="177" type="line"/>
      <point x="599" y="59" type="line"/>
      <point x="696" y="35" type="line"/>
      <point x="793" y="59" type="line"/>
    </contour>
  </outline>
</glyph>
<glyph name="guilsinglleft" format="1">
  <advance width="258"/>
  <unicode hex="2039"/>
  <outline>
    <contour>
      <point x="224" y="56" type="line"/>
      <point x="198" y="33" type="line"/>
      <point x="92" y="131" type="line"/>
      <point x="29" y="174" type="line"/>
      <point x="29" y="206" type="line"/>
      <point x="92" y="249" type="line"/>
      <point x="198" y="347" type="line"/>
      <point x="224" y="324" type="line"/>
      <point x="106" y="190" type="line"/>
    </contour>
  </outline>
</glyph>
<glyph name="guilsinglright" format="1">
  <advance width="258"/>
  <unicode hex="203A"/>
  <outline>
    <contour>
      <point x="229" y="174" type="line"/>
      <point x="166" y="131" type="line"/>
      <point x="60" y="33" type="line"/>
      <point x="34" y="56" type="line"/>
      <point x="152" y="190" type="line"/>
      <point x="34" y="324" type="line"/>
      <point x="60" y="347" type="line"/>
      <point x="166" y="249" type="line"/>
      <point x="229" y="206" type="line"/>
    </contour>
  </outline>
</glyph>
<glyph name="fraction" format="1">
  <advance width="384"/>
  <unicode hex="2044"/>
  <outline>
    <contour>
      <point x="394" y="584" type="line"/>
      <point x="175" y="211" type="line"/>
      <point x="28" y="-7" type="line"/>
      <point x="-9" y="11" type="line"/>
      <point x="210" y="384" type="line"/>
      <point x="357" y="602" type="line"/>
    </contour>
  </outline>
</glyph>
<glyph name="Euro" format="1">
  <advance width="533"/>
  <unicode hex="20AC"/>
  <outline>
    <contour>
      <point x="19" y="217" type="line"/>
      <point x="19" y="252" type="line"/>
      <point x="95" y="255" type="line"/>
      <point x="90" y="297" type="line"/>
      <point x="95" y="339" type="line"/>
      <point x="19" y="342" type="line"/>
      <point x="19" y="377" type="line"/>
      <point x="100" y="381" type="line"/>
      <point x="121" y="549" type="line"/>
      <point x="279" y="600" type="line"/>
      <point x="353" y="600" type="line"/>
      <point x="495" y="570" type="line"/>
      <point x="480" y="520" type="line"/>
      <point x="314" y="562" type="line"/>
      <point x="175" y="519" type="line"/>
      <point x="158" y="381" type="line"/>
      <point x="341" y="377" type="line"/>
      <point x="341" y="342" type="line"/>
      <point x="153" y="337" type="line"/>
      <point x="148" y="297" type="line"/>
      <point x="153" y="256" type="line"/>
      <point x="341" y="252" type="line"/>
      <point x="341" y="217" type="line"/>
      <point x="158" y="213" type="line"/>
      <point x="175" y="76" type="line"/>
      <point x="313" y="32" type="line"/>
      <point x="477" y="86" type="line"/>
      <point x="491" y="42" type="line"/>
      <point x="347" y="-5" type="line"/>
      <point x="279" y="-5" type="line"/>
      <point x="121" y="46" type="line"/>
      <point x="100" y="213" type="line"/>
    </contour>
  </outline>
</glyph>
<glyph name="uni2117" format="1">
  <advance width="705"/>
  <unicode hex="2117"/>
  <outline>
    <contour>
      <point x="666" y="297" type="line"/>
      <point x="631" y="46" type="line"/>
      <point x="421" y="-5" type="line"/>
      <point x="284" y="-5" type="line"/>
      <point x="74" y="46" type="line"/>
      <point x="39" y="297" type="line"/>
      <point x="74" y="549" type="line"/>
      <point x="284" y="600" type="line"/>
      <point x="421" y="600" type="line"/>
      <point x="631" y="549" type="line"/>
    </contour>
    <contour>
      <point x="629" y="297" type="line"/>
      <point x="599" y="525" type="line"/>
      <point x="416" y="568" type="line"/>
      <point x="288" y="568" type="line"/>
      <point x="107" y="525" type="line"/>
      <point x="76" y="297" type="line"/>
      <point x="107" y="71" type="line"/>
      <point x="288" y="27" type="line"/>
      <point x="416" y="27" type="line"/>
      <point x="599" y="71" type="line"/>
    </contour>
    <contour>
      <point x="494" y="372" type="line"/>
      <point x="483" y="285" type="line"/>
      <point x="371" y="251" type="line"/>
      <point x="280" y="251" type="line"/>
      <point x="285" y="105" type="line"/>
      <point x="234" y="105" type="line"/>
      <point x="239" y="299" type="line"/>
      <point x="234" y="494" type="line"/>
      <point x="371" y="494" type="line"/>
      <point x="483" y="461" type="line"/>
    </contour>
    <contour>
      <point x="449" y="372" type="line"/>
      <point x="441" y="431" type="line"/>
      <point x="357" y="455" type="line"/>
      <point x="283" y="455" type="line"/>
      <point x="279" y="290" type="line"/>
      <point x="357" y="290" type="line"/>
      <point x="441" y="314" type="line"/>
    </contour>
  </outline>
</glyph>
<glyph name="trademark" format="1">
  <advance width="793"/>
  <unicode hex="2122"/>
  <outline>
    <contour>
      <point x="725" y="206" type="line"/>
      <point x="676" y="206" type="line"/>
      <point x="682" y="507" type="line"/>
      <point x="572" y="206" type="line"/>
      <point x="538" y="206" type="line"/>
      <point x="416" y="509" type="line"/>
      <point x="421" y="206" type="line"/>
      <point x="376" y="206" type="line"/>
      <point x="381" y="400" type="line"/>
      <point x="376" y="595" type="line"/>
      <point x="428" y="595" type="line"/>
      <point x="492" y="429" type="line"/>
      <point x="559" y="270" type="line"/>
      <point x="613" y="416" type="line"/>
      <point x="674" y="595" type="line"/>
      <point x="725" y="595" type="line"/>
      <point x="719" y="400" type="line"/>
    </contour>
    <contour>
      <point x="317" y="595" type="line"/>
      <point x="308" y="555" type="line"/>
      <point x="196" y="564" type="line"/>
      <point x="193" y="401" type="line"/>
      <point x="198" y="206" type="line"/>
      <point x="148" y="206" type="line"/>
      <point x="153" y="401" type="line"/>
      <point x="149" y="564" type="line"/>
      <point x="37" y="555" type="line"/>
      <point x="28" y="595" type="line"/>
    </contour>
  </outline>
</glyph>
<glyph name="radical" format="1">
  <advance width="475"/>
  <unicode hex="221A"/>
  <outline>
    <contour>
      <point x="452" y="584" type="line"/>
      <point x="337" y="271" type="line"/>
      <point x="242" y="-2" type="line"/>
      <point x="185" y="-2" type="line"/>
      <point x="110" y="142" type="line"/>
      <point x="22" y="273" type="line"/>
      <point x="74" y="302" type="line"/>
      <point x="215" y="53" type="line"/>
      <point x="327" y="374" type="line"/>
      <point x="400" y="603" type="line"/>
    </contour>
  </outline>
</glyph>
<glyph name="apple" format="1">
  <advance width="622"/>
  <unicode hex="F8FF"/>
  <outline>
    <contour>
      <point x="598" y="271" type="line"/>
      <point x="336" y="279" type="line"/>
      <point x="339" y="172" type="line"/>
      <point x="483" y="179" type="line"/>
      <point x="483" y="129" type="line"/>
      <point x="340" y="135" type="line"/>
      <point x="344" y="0" type="line"/>
      <point x="278" y="0" type="line"/>
      <point x="282" y="135" type="line"/>
      <point x="139" y="129" type="line"/>
      <point x="139" y="179" type="line"/>
      <point x="283" y="172" type="line"/>
      <point x="286" y="279" type="line"/>
      <point x="24" y="271" type="line"/>
      <point x="24" y="324" type="line"/>
      <point x="286" y="316" type="line"/>
      <point x="283" y="423" type="line"/>
      <point x="139" y="416" type="line"/>
      <point x="139" y="466" type="line"/>
      <point x="282" y="460" type="line"/>
      <point x="278" y="595" type="line"/>
      <point x="344" y="595" type="line"/>
      <point x="340" y="460" type="line"/>
      <point x="483" y="466" type="line"/>
      <point x="483" y="416" type="line"/>
      <point x="339" y="423" type="line"/>
      <point x="336" y="316" type="line"/>
      <point x="598" y="324" type="line"/>
    </contour>
  </outline>
</glyph>
<glyph name="f_f" format="1">
  <advance width="401"/>
  <unicode hex="FB00"/>
  <outline>
    <contour>
      <point x="411" y="695" type="line"/>
      <point x="316" y="706" type="line"/>
      <point x="311" y="380" type="line"/>
      <point x="384" y="374" type="line"/>
      <point x="384" y="337" type="line"/>
      <point x="312" y="332" type="line"/>
      <point x="317" y="0" type="line"/>
      <point x="255" y="0" type="line"/>
      <point x="260" y="332" type="line"/>
      <point x="189" y="335" type="line"/>
      <point x="119" y="332" type="line"/>
      <point x="124" y="0" type="line"/>
      <point x="62" y="0" type="line"/>
      <point x="67" y="334" type="line"/>
      <point x="36" y="337" type="line"/>
      <point x="36" y="374" type="line"/>
      <point x="68" y="378" type="line"/>
      <point x="62" y="730" type="line"/>
      <point x="176" y="750" type="line"/>
      <point x="274" y="735" type="line"/>
      <point x="329" y="750" type="line"/>
      <point x="411" y="744" type="line"/>
    </contour>
    <contour>
      <point x="261" y="379" type="line"/>
      <point x="256" y="694" type="line"/>
      <point x="187" y="708" type="line"/>
      <point x="123" y="697" type="line"/>
      <point x="118" y="379" type="line"/>
      <point x="189" y="376" type="line"/>
    </contour>
  </outline>
</glyph>
<glyph name="f_f_i" format="1">
  <advance width="575"/>
  <unicode hex="FB03"/>
  <outline>
    <contour>
      <point x="510" y="0" type="line"/>
      <point x="441" y="0" type="line"/>
      <point x="449" y="187" type="line"/>
      <point x="443" y="336" type="line"/>
      <point x="312" y="331" type="line"/>
      <point x="317" y="0" type="line"/>
      <point x="255" y="0" type="line"/>
      <point x="260" y="332" type="line"/>
      <point x="189" y="335" type="line"/>
      <point x="119" y="332" type="line"/>
      <point x="124" y="0" type="line"/>
      <point x="62" y="0" type="line"/>
      <point x="67" y="334" type="line"/>
      <point x="36" y="337" type="line"/>
      <point x="36" y="374" type="line"/>
      <point x="68" y="378" type="line"/>
      <point x="62" y="730" type="line"/>
      <point x="176" y="750" type="line"/>
      <point x="279" y="734" type="line"/>
      <point x="369" y="750" type="line"/>
      <point x="504" y="728" type="line"/>
      <point x="481" y="669" type="line"/>
      <point x="380" y="708" type="line"/>
      <point x="316" y="697" type="line"/>
      <point x="311" y="380" type="line"/>
      <point x="510" y="375" type="line"/>
      <point x="502" y="187" type="line"/>
    </contour>
    <contour>
      <point x="261" y="379" type="line"/>
      <point x="256" y="694" type="line"/>
      <point x="187" y="708" type="line"/>
      <point x="123" y="697" type="line"/>
      <point x="118" y="379" type="line"/>
      <point x="189" y="376" type="line"/>
    </contour>
  </outline>
</glyph>
<glyph name="f_f_l" format="1">
  <advance width="582"/>
  <unicode hex="FB04"/>
  <outline>
    <contour>
      <point x="517" y="0" type="line"/>
      <point x="451" y="0" type="line"/>
      <point x="458" y="375" type="line"/>
      <point x="452" y="692" type="line"/>
      <point x="380" y="708" type="line"/>
      <point x="316" y="697" type="line"/>
      <point x="311" y="380" type="line"/>
      <point x="384" y="374" type="line"/>
      <point x="384" y="337" type="line"/>
      <point x="312" y="331" type="line"/>
      <point x="317" y="0" type="line"/>
      <point x="255" y="0" type="line"/>
      <point x="260" y="332" type="line"/>
      <point x="189" y="335" type="line"/>
      <point x="119" y="332" type="line"/>
      <point x="124" y="0" type="line"/>
      <point x="62" y="0" type="line"/>
      <point x="67" y="334" type="line"/>
      <point x="36" y="337" type="line"/>
      <point x="36" y="374" type="line"/>
      <point x="68" y="378" type="line"/>
      <point x="62" y="730" type="line"/>
      <point x="176" y="750" type="line"/>
      <point x="279" y="734" type="line"/>
      <point x="369" y="750" type="line"/>
      <point x="451" y="737" type="line"/>
      <point x="451" y="750" type="line"/>
      <point x="517" y="750" type="line"/>
      <point x="509" y="375" type="line"/>
    </contour>
    <contour>
      <point x="261" y="379" type="line"/>
      <point x="256" y="694" type="line"/>
      <point x="187" y="708" type="line"/>
      <point x="123" y="697" type="line"/>
      <point x="118" y="379" type="line"/>
      <point x="189" y="376" type="line"/>
    </contour>
  </outline>
</glyph>
<glyph name="bullet" format="1">
  <advance width="274"/>
  <outline>
    <contour>
      <point x="210" y="227" type="line"/>
      <point x="206" y="158" type="line"/>
      <point x="137" y="154" type="line"/>
      <point x="68" y="158" type="line"/>
      <point x="64" y="227" type="line"/>
      <point x="68" y="295" type="line"/>
      <point x="137" y="299" type="line"/>
      <point x="206" y="295" type="line"/>
    </contour>
  </outline>
</glyph>
<glyph name="f_i" format="1">
  <advance width="382"/>
  <outline>
    <contour>
      <point x="317" y="0" type="line"/>
      <point x="248" y="0" type="line"/>
      <point x="256" y="187" type="line"/>
      <point x="250" y="336" type="line"/>
      <point x="119" y="332" type="line"/>
      <point x="124" y="0" type="line"/>
      <point x="62" y="0" type="line"/>
      <point x="67" y="333" type="line"/>
      <point x="36" y="337" type="line"/>
      <point x="36" y="374" type="line"/>
      <point x="68" y="378" type="line"/>
      <point x="62" y="730" type="line"/>
      <point x="176" y="750" type="line"/>
      <point x="311" y="728" type="line"/>
      <point x="288" y="669" type="line"/>
      <point x="187" y="708" type="line"/>
      <point x="123" y="697" type="line"/>
      <point x="118" y="379" type="line"/>
      <point x="317" y="375" type="line"/>
      <point x="309" y="187" type="line"/>
    </contour>
  </outline>
</glyph>
<glyph name="f_l" format="1">
  <advance width="389"/>
  <outline>
    <contour>
      <point x="324" y="0" type="line"/>
      <point x="258" y="0" type="line"/>
      <point x="265" y="375" type="line"/>
      <point x="259" y="692" type="line"/>
      <point x="187" y="708" type="line"/>
      <point x="123" y="697" type="line"/>
      <point x="118" y="380" type="line"/>
      <point x="191" y="374" type="line"/>
      <point x="191" y="337" type="line"/>
      <point x="119" y="331" type="line"/>
      <point x="124" y="0" type="line"/>
      <point x="62" y="0" type="line"/>
      <point x="67" y="333" type="line"/>
      <point x="36" y="337" type="line"/>
      <point x="36" y="374" type="line"/>
      <point x="68" y="378" type="line"/>
      <point x="62" y="730" type="line"/>
      <point x="176" y="750" type="line"/>
      <point x="258" y="737" type="line"/>
      <point x="258" y="750" type="line"/>
      <point x="324" y="750" type="line"/>
      <point x="317" y="375" type="line"/>
    </contour>
  </outline>
</glyph>
<glyph name="g.salt" format="1">
  <advance width="410"/>
  <outline>
    <contour>
      <point x="353" y="375" type="line"/>
      <point x="345" y="118" type="line"/>
      <point x="352" y="-115" type="line"/>
      <point x="240" y="-140" type="line"/>
      <point x="146" y="-140" type="line"/>
      <point x="42" y="-122" type="line"/>
      <point x="54" y="-69" type="line"/>
      <point x="195" y="-102" type="line"/>
      <point x="290" y="-82" type="line"/>
      <point x="293" y="32" type="line"/>
      <point x="164" y="-5" type="line"/>
      <point x="64" y="11" type="line"/>
      <point x="49" y="188" type="line"/>
      <point x="64" y="364" type="line"/>
      <point x="163" y="380" type="line"/>
      <point x="288" y="344" type="line"/>
      <point x="287" y="375" type="line"/>
    </contour>
    <contour>
      <point x="295" y="118" type="line"/>
      <point x="289" y="301" type="line"/>
      <point x="180" y="330" type="line"/>
      <point x="119" y="320" type="line"/>
      <point x="107" y="188" type="line"/>
      <point x="119" y="55" type="line"/>
      <point x="180" y="45" type="line"/>
      <point x="294" y="75" type="line"/>
    </contour>
  </outline>
</glyph>
<glyph name="macron" format="1">
  <advance width="438"/>
  <outline>
    <contour>
      <point x="341" y="430" type="line"/>
      <point x="219" y="425" type="line"/>
      <point x="97" y="430" type="line"/>
      <point x="97" y="472" type="line"/>
      <point x="219" y="477" type="line"/>
      <point x="341" y="472" type="line"/>
    </contour>
  </outline>
</glyph>
<glyph name="registered" format="1">
  <advance width="705"/>
  <outline>
    <contour>
      <point x="666" y="297" type="line"/>
      <point x="631" y="46" type="line"/>
      <point x="421" y="-5" type="line"/>
      <point x="284" y="-5" type="line"/>
      <point x="74" y="46" type="line"/>
      <point x="39" y="297" type="line"/>
      <point x="74" y="549" type="line"/>
      <point x="284" y="600" type="line"/>
      <point x="421" y="600" type="line"/>
      <point x="631" y="549" type="line"/>
    </contour>
    <contour>
      <point x="629" y="297" type="line"/>
      <point x="599" y="525" type="line"/>
      <point x="416" y="568" type="line"/>
      <point x="288" y="568" type="line"/>
      <point x="107" y="525" type="line"/>
      <point x="76" y="297" type="line"/>
      <point x="107" y="71" type="line"/>
      <point x="288" y="27" type="line"/>
      <point x="416" y="27" type="line"/>
      <point x="599" y="71" type="line"/>
    </contour>
    <contour>
      <point x="507" y="130" type="line"/>
      <point x="471" y="99" type="line"/>
      <point x="318" y="268" type="line"/>
      <point x="273" y="268" type="line"/>
      <point x="278" y="109" type="line"/>
      <point x="227" y="109" type="line"/>
      <point x="232" y="303" type="line"/>
      <point x="227" y="498" type="line"/>
      <point x="364" y="498" type="line"/>
      <point x="475" y="469" type="line"/>
      <point x="487" y="383" type="line"/>
      <point x="475" y="298" type="line"/>
      <point x="374" y="271" type="line"/>
    </contour>
    <contour>
      <point x="442" y="383" type="line"/>
      <point x="434" y="439" type="line"/>
      <point x="349" y="459" type="line"/>
      <point x="276" y="459" type="line"/>
      <point x="272" y="307" type="line"/>
      <point x="349" y="307" type="line"/>
      <point x="434" y="327" type="line"/>
    </contour>
  </outline>
</glyph>
